<svg width="66" height="31" viewBox="0 0 66 31" fill="none" xmlns="http://www.w3.org/2000/svg">
<path d="M11.44 2V30H6.24V6.36H0.32V2H11.44ZM29.7144 12.72C31.5544 12.72 33.2077 13.08 34.6744 13.8C36.141 14.4933 37.2877 15.4933 38.1144 16.8C38.941 18.1067 39.3544 19.6133 39.3544 21.32C39.3544 23.1333 38.901 24.7333 37.9944 26.12C37.0877 27.48 35.861 28.5333 34.3144 29.28C32.7677 30.0267 31.0344 30.4 29.1144 30.4C25.2744 30.4 22.2877 29.2 20.1544 26.8C18.0477 24.4 16.9944 20.96 16.9944 16.48C16.9944 13.3333 17.5677 10.6533 18.7144 8.44C19.861 6.2 21.461 4.50667 23.5144 3.36C25.5944 2.18667 27.9944 1.6 30.7144 1.6C32.1544 1.6 33.501 1.76 34.7544 2.08C36.0344 2.37333 37.141 2.81333 38.0744 3.4L36.1544 7.32C34.7677 6.41333 32.9944 5.96 30.8344 5.96C28.141 5.96 26.0344 6.78667 24.5144 8.44C22.9944 10.0933 22.2344 12.48 22.2344 15.6V15.64C23.061 14.68 24.1144 13.96 25.3944 13.48C26.6744 12.9733 28.1144 12.72 29.7144 12.72ZM28.8344 26.32C30.461 26.32 31.781 25.8933 32.7944 25.04C33.8077 24.16 34.3144 23 34.3144 21.56C34.3144 20.0933 33.8077 18.9333 32.7944 18.08C31.781 17.2267 30.421 16.8 28.7144 16.8C27.0344 16.8 25.661 17.2533 24.5944 18.16C23.5544 19.0667 23.0344 20.2133 23.0344 21.6C23.0344 22.96 23.541 24.0933 24.5544 25C25.5944 25.88 27.021 26.32 28.8344 26.32ZM52.3125 20.84L48.5925 24.36V30H43.5925V0.319998H48.5925V18.24L58.9525 8.64H64.9525L56.0325 17.6L65.7925 30H59.7125L52.3125 20.84Z" fill="#253E5F"/>
</svg>
