<svg width="75" height="31" viewBox="0 0 75 31" fill="none" xmlns="http://www.w3.org/2000/svg">
<path d="M22.04 25.6V30H1.4V26.52L12.52 15.96C13.7733 14.76 14.6133 13.72 15.04 12.84C15.4933 11.9333 15.72 11.04 15.72 10.16C15.72 8.85333 15.28 7.85333 14.4 7.16C13.52 6.46667 12.2267 6.12 10.52 6.12C7.66667 6.12 5.48 7.09333 3.96 9.04L0.32 6.24C1.41333 4.77333 2.88 3.64 4.72 2.84C6.58667 2.01333 8.66667 1.6 10.96 1.6C14 1.6 16.4267 2.32 18.24 3.76C20.0533 5.2 20.96 7.16 20.96 9.64C20.96 11.16 20.64 12.5867 20 13.92C19.36 15.2533 18.1333 16.7733 16.32 18.48L8.84 25.6H22.04ZM43.2013 15.28C44.6679 15.9467 45.7879 16.8533 46.5613 18C47.3613 19.12 47.7613 20.44 47.7613 21.96C47.7613 23.6667 47.2813 25.16 46.3213 26.44C45.3879 27.72 44.0546 28.7067 42.3213 29.4C40.5879 30.0667 38.5746 30.4 36.2813 30.4C33.9879 30.4 31.9746 30.0667 30.2413 29.4C28.5346 28.7067 27.2146 27.72 26.2813 26.44C25.3479 25.16 24.8813 23.6667 24.8813 21.96C24.8813 20.44 25.2679 19.12 26.0413 18C26.8146 16.8533 27.9213 15.9467 29.3613 15.28C28.2413 14.6667 27.3746 13.8667 26.7613 12.88C26.1746 11.8667 25.8813 10.7067 25.8813 9.4C25.8813 7.82667 26.3079 6.45333 27.1613 5.28C28.0413 4.10666 29.2679 3.2 30.8413 2.56C32.4146 1.92 34.2279 1.6 36.2813 1.6C38.3613 1.6 40.1879 1.92 41.7613 2.56C43.3346 3.2 44.5613 4.10666 45.4413 5.28C46.3213 6.45333 46.7613 7.82667 46.7613 9.4C46.7613 10.7067 46.4546 11.8533 45.8413 12.84C45.2279 13.8267 44.3479 14.64 43.2013 15.28ZM36.2813 5.68C34.6546 5.68 33.3613 6.02667 32.4013 6.72C31.4679 7.41333 31.0013 8.38667 31.0013 9.64C31.0013 10.84 31.4679 11.8 32.4013 12.52C33.3613 13.2133 34.6546 13.56 36.2813 13.56C37.9346 13.56 39.2413 13.2133 40.2013 12.52C41.1613 11.8 41.6413 10.84 41.6413 9.64C41.6413 8.38667 41.1479 7.41333 40.1613 6.72C39.2013 6.02667 37.9079 5.68 36.2813 5.68ZM36.2813 26.32C38.2013 26.32 39.7213 25.92 40.8413 25.12C41.9613 24.32 42.5213 23.2133 42.5213 21.8C42.5213 20.4133 41.9613 19.32 40.8413 18.52C39.7213 17.72 38.2013 17.32 36.2813 17.32C34.3613 17.32 32.8546 17.72 31.7613 18.52C30.6679 19.32 30.1213 20.4133 30.1213 21.8C30.1213 23.2133 30.6679 24.32 31.7613 25.12C32.8546 25.92 34.3613 26.32 36.2813 26.32ZM61.375 20.84L57.655 24.36V30H52.655V0.319998H57.655V18.24L68.015 8.64H74.015L65.095 17.6L74.855 30H68.775L61.375 20.84Z" fill="#253E5F"/>
</svg>
