<svg width="49" height="30" viewBox="0 0 49 30" fill="none" xmlns="http://www.w3.org/2000/svg">
<path d="M22.04 25.6V30H1.4V26.52L12.52 15.96C13.7733 14.76 14.6133 13.72 15.04 12.84C15.4933 11.9333 15.72 11.04 15.72 10.16C15.72 8.85333 15.28 7.85333 14.4 7.16C13.52 6.46667 12.2267 6.12 10.52 6.12C7.66667 6.12 5.48 7.09333 3.96 9.04L0.32 6.24C1.41333 4.77333 2.88 3.64 4.72 2.84C6.58667 2.01333 8.66667 1.6 10.96 1.6C14 1.6 16.4267 2.32 18.24 3.76C20.0533 5.2 20.96 7.16 20.96 9.64C20.96 11.16 20.64 12.5867 20 13.92C19.36 15.2533 18.1333 16.7733 16.32 18.48L8.84 25.6H22.04ZM35.2813 20.84L31.5613 24.36V30H26.5613V0.319998H31.5613V18.24L41.9213 8.64H47.9213L39.0013 17.6L48.7613 30H42.6813L35.2813 20.84Z" fill="#253E5F"/>
</svg>
