<svg width="32" height="32" viewBox="0 0 32 32" fill="none" xmlns="http://www.w3.org/2000/svg">
<g clip-path="url(#clip0_912_169)">
<path d="M22.6667 25.3333H25.3334V14.6667H17.3334V25.3333H20.0001V17.3333H22.6667V25.3333ZM4.00008 25.3333V5.33333C4.00008 4.97971 4.14056 4.64057 4.39061 4.39052C4.64065 4.14048 4.97979 4 5.33341 4H24.0001C24.3537 4 24.6928 4.14048 24.9429 4.39052C25.1929 4.64057 25.3334 4.97971 25.3334 5.33333V12H28.0001V25.3333H29.3334V28H2.66675V25.3333H4.00008ZM9.33341 14.6667V17.3333H12.0001V14.6667H9.33341ZM9.33341 20V22.6667H12.0001V20H9.33341ZM9.33341 9.33333V12H12.0001V9.33333H9.33341Z" fill="white"/>
</g>
<defs>
<clipPath id="clip0_912_169">
<rect width="32" height="32" fill="white"/>
</clipPath>
</defs>
</svg>
