<svg width="178" height="117" viewBox="0 0 178 117" fill="none" xmlns="http://www.w3.org/2000/svg">
<g clip-path="url(#clip0_912_346)">
<path fill-rule="evenodd" clip-rule="evenodd" d="M95.9473 28.0798C95.9473 32.3876 92.4254 35.88 88.0806 35.88C83.736 35.88 80.2139 32.3876 80.2139 28.0798C80.2139 23.7723 83.736 20.28 88.0806 20.28C92.4254 20.28 95.9473 23.7723 95.9473 28.0798ZM146.9 43.6418C149.676 43.6418 148.377 39.2783 144.861 40.3206C144.667 34.2619 134.707 29.829 130.588 38.0007C129.424 37.0871 126.809 38.8126 127.388 40.3206C126.095 40.43 125.077 40.5782 124.286 40.7747C122.458 41.2285 122.819 43.6213 124.704 43.6046L146.9 43.6418ZM94.6139 43.6418C91.9895 43.6418 93.2173 39.5156 96.542 40.5011C96.7261 34.772 106.144 30.5801 110.039 38.3074C111.14 37.4435 113.612 39.0753 113.065 40.5011C114.288 40.6045 115.25 40.7449 115.999 40.9305C117.727 41.3597 117.385 43.6225 115.604 43.6067L94.6139 43.6418ZM126.517 28.5369C125.267 28.5369 125.852 26.5707 127.436 27.0403C127.524 24.3103 132.012 22.3129 133.867 25.9949C134.392 25.5833 135.57 26.3609 135.309 27.0403C135.892 27.0896 136.351 27.1565 136.707 27.245C137.531 27.4494 137.368 28.5276 136.519 28.5201L126.517 28.5369ZM115.487 35.7868H122.612C123.249 35.7868 123.523 34.9692 123.002 34.6065L122.98 34.5911C122.238 34.0854 121.264 34.1313 121.264 34.1313C121.264 34.1313 121.125 31.395 118.504 31.395C116.135 31.395 115.19 33.7005 114.849 34.9707C114.739 35.3834 115.057 35.7868 115.487 35.7868ZM38.0042 43.3918H30.1379C29.5011 43.3918 29.2263 42.5742 29.7477 42.2113L29.7699 42.1961C30.5119 41.6902 31.486 41.7361 31.486 41.7361C31.486 41.7361 31.6251 39 34.2457 39C35.5413 39 36.5882 41.1959 36.5882 41.1959C36.5882 41.1959 38.3507 41.1959 38.6423 42.5755C38.7306 42.9936 38.4351 43.3918 38.0042 43.3918ZM49.0918 44.07H80.5017C83.4501 44.07 83.3148 41.6505 82.3517 40.8073C81.3646 39.943 79.4143 40.2937 79.4143 40.2937C79.4143 40.2937 78.8335 38.6662 76.9223 37.8737C75.2316 37.1729 73.4606 37.5063 73.4606 37.5063C73.4606 37.5063 73.4606 36.3894 72.3781 35.4645C71.2955 34.5392 69.8522 34.6293 69.8522 34.6293C69.8522 34.6293 68.86 28.47 62.2298 28.47C55.5993 28.47 54.8327 34.2693 54.8327 34.2693C54.8327 34.2693 53.3442 34.2693 52.2617 35.2586C51.1791 36.2476 51.0439 37.3714 51.0439 37.3714C51.0439 37.3714 47.4237 36.8853 46.3529 39.998C45.7149 41.8531 47.0258 44.07 49.0918 44.07ZM37.8567 31.4097H47.7016C48.6257 31.4097 48.5832 30.6513 48.2814 30.3869C47.972 30.116 47.3608 30.226 47.3608 30.226C47.3608 30.226 47.1787 29.7159 46.5796 29.4675C46.0498 29.2479 45.4946 29.3524 45.4946 29.3524C45.4946 29.3524 45.4946 29.0022 45.1553 28.7122C44.8161 28.4223 44.3636 28.4505 44.3636 28.4505C44.3636 28.4505 44.0526 26.52 41.9745 26.52C39.8963 26.52 39.656 28.3378 39.656 28.3378C39.656 28.3378 39.1895 28.3378 38.8502 28.6479C38.5108 28.9577 38.4685 29.3101 38.4685 29.3101C38.4685 29.3101 37.3337 29.1576 36.9982 30.1334C36.7982 30.7149 37.209 31.4097 37.8567 31.4097Z" fill="white" stroke="#F0F0F0" stroke-width="1.80545"/>
<path d="M77.7917 95.9046V74.6849M100.008 95.9046V74.6849" stroke="#F0F0F0" stroke-width="1.80545" stroke-linecap="round" stroke-linejoin="round"/>
<path fill-rule="evenodd" clip-rule="evenodd" d="M74.1008 83.8775H103.687V80.481H74.1008V83.8775ZM74.1008 78.9366H103.687V75.3344H74.1008V78.9366Z" fill="white" stroke="#F0F0F0" stroke-width="1.80545"/>
<path fill-rule="evenodd" clip-rule="evenodd" d="M71.1938 89.3325H106.593V86.7592H71.1938V89.3325Z" fill="white"/>
<path fill-rule="evenodd" clip-rule="evenodd" d="M71.1938 89.3325H106.593V86.7592H71.1938V89.3325Z" fill="white" stroke="#F0F0F0" stroke-width="1.80545"/>
<path d="M143.388 97.8884C138.588 97.975 137.317 98.3432 132.334 98.1916C129.96 98.2133 127.427 98.1483 125.106 98.1051C124.003 97.8235 122.063 98.1051 120.754 97.8668L120.252 98.0183C119.804 97.9317 119.278 97.8884 118.822 97.975L118.852 98.0183C118.183 97.9101 117.422 97.975 117.095 97.9101L117.126 97.9534L116.312 97.9317L116.448 97.9966C115.277 97.8668 114.075 97.8668 113.009 97.9101L113.101 97.7153C110.826 97.9317 109.997 97.5419 107.95 97.7802L107.981 97.8235C105.386 97.3254 103.888 98.17 101.217 97.6936C101.552 97.7585 101.073 97.7802 101.103 97.8451C99.8706 97.8018 98.562 97.7585 98.5391 97.3904C97.6416 97.3904 97.8089 97.4986 97.6947 97.6501C97.7023 97.4986 96.9188 97.412 96.2189 97.412L96.5383 97.477L94.5299 97.412L94.9254 97.1088C93.8602 97.1954 94.6516 97.477 93.6398 97.412L93.6549 97.1521C92.1866 97.1954 91.3193 97.5852 89.8966 97.7802C83.9776 97.8884 77.6174 97.2387 72.1168 97.6936L71.8733 97.8884C71.7669 98.17 70.3517 97.477 70.1464 97.7369L69.5072 97.6068C69.3247 97.6501 68.9444 97.7153 69.2637 97.7802C68.6704 97.8018 68.6553 97.7369 68.2291 97.6718L67.5901 97.8451C65.2545 97.975 63.2687 97.6501 60.8114 97.7153C57.8594 98.0616 52.2981 97.7369 49.0952 97.5635C44.5911 97.1521 39.3568 98.2566 34.7466 97.7802C34.5944 97.8235 34.2063 97.7369 34.214 97.6936L29.9916 97.7369C29.9916 97.7369 9.5337 97.8451 25.0769 95.5279L24.9703 95.463C27.2831 95.3113 28.7362 95.2896 30.3263 95.5929C30.5772 95.2247 32.2206 95.5496 32.7608 95.4414L32.7075 95.4197C34.1151 95.7011 35.6062 95.1814 36.9679 95.4414C36.9148 95.4197 36.8843 95.3113 36.5724 95.3113C37.5615 95.3548 38.9157 95.4414 38.9918 95.2247C41.3577 95.2896 44.6521 95.1814 46.166 95.5279L46.0596 95.463C46.9193 95.7011 47.1779 95.5063 48.1441 95.6145C48.1974 95.5929 48.2658 95.5712 48.2507 95.5496C49.1939 95.7879 50.9971 95.5929 51.7504 95.6795L51.796 95.5279L53.6675 95.5712L52.9675 95.5929C53.211 95.9827 54.3826 95.3331 55.7368 95.5929C57.0075 95.5496 58.3159 96.4158 59.6322 96.221C60.2637 96.4158 59.0768 95.9177 60.0202 96.0693C60.0505 95.8528 59.5789 95.9394 59.8224 95.7662C60.743 95.8745 61.3363 95.5496 62.4776 95.7011L62.5232 95.5496C64.0066 95.8528 65.3229 95.3329 66.312 95.6145C67.8411 95.7446 67.339 95.1381 68.9367 95.4414L69.5605 95.2247C70.2453 95.1814 70.0475 95.4846 70.8082 95.3764C70.7625 95.2464 71.7669 95.268 71.3179 95.1381C73.0297 94.9215 74.7948 95.4414 77.0543 95.0732C77.5412 95.3329 78.6825 95.1814 79.0477 95.3764C79.1085 95.268 81.3224 95.3546 80.0519 95.0948C79.9453 95.0732 79.7476 95.0732 79.7628 95.1165L79.6106 94.9648C80.8964 94.6617 81.9462 95.1381 83.2243 95.0732C82.844 95.1165 82.3419 95.1165 82.6766 95.2247L83.8635 95.2031L83.62 95.0732L85.3851 94.9866L85.1416 95.1598C86.0013 95.0732 86.3057 94.7916 87.2794 95.0299C87.7207 95.1598 86.4654 95.2464 87.3708 95.3113C88.5272 95.2031 90.2542 95.0299 91.7225 94.9866C91.5856 95.1814 91.9811 95.1598 92.3919 95.2031L92.4376 95.0516C93.9973 95.268 93.0083 94.705 94.5602 94.8782L94.4233 94.77L94.8341 95.1165C96.234 95.4414 95.5874 94.7916 97.1393 95.2247C96.5231 95.2031 96.8504 95.5712 97.6034 95.5063L97.4132 95.3548C97.8317 95.3981 97.9686 95.463 98.25 95.4197C97.9991 95.3329 98.1208 95.2031 98.737 95.2247L98.3262 95.0299L99.4902 95.3113C100.388 95.1381 101.811 95.3546 102.183 95.1381C102.183 95.1381 104.116 95.0299 104.557 95.268C104.169 95.1165 105.234 95.0516 104.93 94.8782C105.432 95.0516 106.908 95.1814 107.501 95.0083L107.387 94.9866C109.578 94.7916 111.13 95.2464 113.093 95.0083C113.002 95.2031 114.044 95.0948 113.786 95.3329C115.817 95.5712 117.491 94.8349 118.229 95.5929C119.157 95.6362 119.324 95.4197 119.804 95.3764L119.583 95.3329C121.317 95.3981 121.82 95.3981 123.105 95.3764C123.744 95.4414 123.851 95.7879 125 95.7011C124.627 95.5712 125.099 95.5929 125.525 95.5929C125.251 95.5712 125.167 95.5279 125.73 95.4197C125.806 95.463 125.935 95.4846 126.05 95.5063C126.057 95.5063 126.08 95.4846 126.065 95.463C126.78 95.5063 126.658 95.5496 126.323 95.5712C126.339 95.5929 126.316 95.6145 126.209 95.6578C126.955 95.4847 128.286 95.6795 128.378 95.4414C130.538 95.5063 132.083 95.7446 133.878 95.8312C134.084 95.7011 133.658 95.5929 133.14 95.5496L134.418 95.5929C134.411 95.4197 133.688 95.4846 133.292 95.463C134.814 95.1814 136.427 95.7446 138.207 95.4847L138.58 95.6145L138.686 95.5929C138.679 95.6578 139.082 95.7662 139.341 95.7879C139.592 95.6362 139.325 95.4414 140.208 95.4414C140.908 95.2896 142.186 95.5063 143.099 95.5929C142.604 95.6145 142.764 95.7011 142.977 95.7662C143.419 95.7662 143.67 95.6145 144.012 95.6795L144.058 95.4847C143.883 95.6795 145.206 95.7011 145.374 95.7662C145.625 95.6145 144.689 95.6362 144.583 95.5279C146.348 95.5496 145.465 95.5279 147.238 95.5496C148.181 95.7011 147.063 95.7444 147.519 95.9177C148.349 95.961 149.163 96.0909 150.121 95.9827L149.817 96.156C151.384 96.3075 152.32 96.2859 153.37 96.0909C165.025 97.5635 155.827 98.1051 155.827 98.1051C151.217 98.5598 148.851 98.0399 143.388 97.8884Z" fill="#F0F0F0"/>
<path d="M145.973 99.1059C140.943 99.3075 139.612 100.165 134.391 99.8118C131.904 99.8621 129.249 99.7109 126.818 99.6101C125.662 98.9545 123.63 99.6101 122.258 99.0554L121.732 99.4083C121.262 99.2067 120.712 99.1057 120.234 99.3075L120.266 99.4083C119.564 99.1562 118.767 99.3075 118.424 99.1562L118.456 99.257L117.603 99.2067L117.747 99.358C116.519 99.0554 115.26 99.0554 114.144 99.1562L114.239 98.7024C111.856 99.2067 110.987 98.2989 108.843 98.8537L108.875 98.9545C106.156 97.7949 104.586 99.7613 101.788 98.6521C102.139 98.8032 101.637 98.8537 101.669 99.0048C100.377 98.904 99.0063 98.8032 98.9823 97.9462C98.0418 97.9462 98.2171 98.1981 98.0975 98.5511C98.1055 98.1981 97.2845 97.9965 96.5511 97.9965L96.8858 98.1478L94.7815 97.9965L95.1961 97.2906C94.08 97.4922 94.9091 98.1478 93.8489 97.9965L93.8648 97.3914C92.3263 97.4922 91.4177 98.4 89.927 98.8537C83.7253 99.1059 77.0614 97.5932 71.2981 98.6521L71.043 99.1059C70.9315 99.7612 69.4488 98.1478 69.2337 98.7527L68.564 98.4503C68.3727 98.5511 67.9742 98.7024 68.309 98.8537C67.6871 98.904 67.6712 98.7527 67.2249 98.6016L66.5553 99.0048C64.1082 99.3075 62.0276 98.5511 59.4529 98.7024C56.3601 99.5091 50.5331 98.7529 47.1771 98.3494C42.4581 97.3914 36.9739 99.9629 32.1433 98.8537C31.9838 98.9545 31.5773 98.7529 31.5854 98.6521L27.1614 98.7527C27.1614 98.7527 5.72668 99.005 22.0119 93.6098L21.9004 93.4587C24.3235 93.1057 25.8461 93.0552 27.512 93.7611C27.7752 92.9039 29.4968 93.6603 30.0628 93.4082L30.007 93.3576C31.4818 94.0132 33.0441 92.8031 34.4709 93.4082C34.4152 93.3576 34.3834 93.1055 34.0565 93.1055C35.0928 93.2063 36.5115 93.4082 36.5914 92.9039C39.0703 93.0552 42.5218 92.8031 44.1082 93.6098L43.9966 93.4587C44.8974 94.0132 45.1684 93.5593 46.1808 93.8114C46.2365 93.7611 46.3083 93.7106 46.2923 93.6603C47.2808 94.2149 49.17 93.7611 49.9592 93.9627L50.007 93.6098L51.9679 93.7106L51.2346 93.7611C51.4896 94.6686 52.7172 93.156 54.136 93.7611C55.4672 93.6603 56.8384 95.6772 58.2174 95.2232C58.879 95.6772 57.6355 94.5175 58.6239 94.8705C58.6558 94.3662 58.1616 94.5678 58.4166 94.1646C59.3811 94.4165 60.0029 93.6603 61.1987 94.0132L61.2465 93.6603C62.8007 94.3662 64.1798 93.156 65.2162 93.8114C66.8184 94.1141 66.2921 92.7023 67.9662 93.4082L68.6199 92.9039C69.3373 92.8031 69.1301 93.509 69.9271 93.2568C69.8794 92.9544 70.9315 93.0047 70.4613 92.7023C72.2547 92.198 74.1041 93.4082 76.4716 92.5509C76.9818 93.156 78.1773 92.8031 78.56 93.2568C78.6237 93.0047 80.9434 93.2063 79.6122 92.6012C79.5007 92.5509 79.2934 92.5509 79.3093 92.6517L79.1498 92.2988C80.497 91.5929 81.597 92.7023 82.9362 92.5509C82.5376 92.6517 82.0115 92.6517 82.3622 92.9039L83.6057 92.8534L83.3508 92.5509L85.2001 92.3493L84.945 92.7528C85.8457 92.5509 86.1645 91.8953 87.1848 92.4501C87.6472 92.7526 86.3319 92.9544 87.2806 93.1055C88.4923 92.8534 90.3016 92.4501 91.8401 92.3493C91.6966 92.8031 92.1111 92.7526 92.5416 92.8534L92.5894 92.5006C94.2235 93.0047 93.1873 91.6937 94.8133 92.0972L94.67 91.845L95.1003 92.6517C96.567 93.4082 95.8895 91.8955 97.5157 92.9039C96.8699 92.8536 97.2127 93.7106 98.0019 93.5593L97.8027 93.2065C98.241 93.3073 98.3844 93.4585 98.6794 93.3576C98.4165 93.156 98.5439 92.8536 99.1896 92.9039L98.7593 92.4501L99.9788 93.1055C100.919 92.7022 102.41 93.2063 102.801 92.7023C102.801 92.7023 104.825 92.4501 105.288 93.0047C104.881 92.6517 105.997 92.5006 105.678 92.0972C106.204 92.5006 107.751 92.8031 108.373 92.3996L108.253 92.3493C110.549 91.8955 112.175 92.9544 114.231 92.3996C114.136 92.8534 115.228 92.6012 114.957 93.156C117.085 93.7106 118.839 91.9963 119.612 93.7611C120.585 93.8619 120.76 93.3576 121.262 93.2568L121.031 93.156C122.848 93.3071 123.374 93.3073 124.722 93.2568C125.391 93.4081 125.503 94.2149 126.706 94.0132C126.316 93.7106 126.81 93.7611 127.256 93.7611C126.97 93.7106 126.882 93.6098 127.472 93.3576C127.551 93.4585 127.687 93.509 127.807 93.5593C127.814 93.5593 127.838 93.509 127.822 93.4587C128.572 93.5595 128.444 93.6603 128.093 93.7106C128.109 93.7611 128.085 93.8114 127.974 93.9124C128.755 93.509 130.15 93.9627 130.246 93.4082C132.509 93.5593 134.128 94.1141 136.009 94.3157C136.224 94.0132 135.778 93.7611 135.236 93.6603L136.575 93.7611C136.567 93.3576 135.809 93.509 135.395 93.4587C136.989 92.8031 138.679 94.114 140.544 93.509L140.935 93.8114L141.047 93.7611C141.039 93.9124 141.461 94.1644 141.732 94.2149C141.995 93.8619 141.716 93.4082 142.641 93.4082C143.374 93.0552 144.714 93.5595 145.67 93.7611C145.152 93.8114 145.319 94.0132 145.543 94.1646C146.005 94.1646 146.268 93.8114 146.627 93.9627L146.674 93.509C146.491 93.9627 147.878 94.0132 148.053 94.1646C148.317 93.8116 147.336 93.8619 147.224 93.6098C149.074 93.6603 148.149 93.6098 150.006 93.6603C150.995 94.0132 149.823 94.1141 150.301 94.5173C151.17 94.6183 152.023 94.9208 153.027 94.6686L152.709 95.0721C154.351 95.425 155.331 95.3745 156.431 94.9208C168.643 98.3495 159.006 99.6101 159.006 99.6101C154.175 100.669 151.696 99.4588 145.973 99.1059Z" fill="#F0F0F0"/>
<path d="M119.118 95.8575C119.118 95.8575 116.208 92.1595 114.991 91.5928C113.694 90.9889 114.818 93.0812 114.818 93.0812C114.818 93.0812 112.046 90.3863 111.395 91.0591C110.744 91.732 111.439 92.3617 111.439 92.3617C111.439 92.3617 109.118 91.9348 108.779 92.7956C108.259 94.1179 112.078 94.7756 112.078 94.7756C112.078 94.7756 110.248 94.3782 110.614 95.197C111.166 96.4313 119.118 95.8575 119.118 95.8575ZM119.896 95.9507C119.896 95.9507 124.534 96.2751 125.437 95.4532C126.341 94.6315 125.444 93.1425 125.444 93.1425C125.444 93.1425 127.036 91.8974 127.011 91.0844C126.987 90.2717 125.95 90.6841 125.95 90.6841C125.95 90.6841 127.707 88.4449 127.29 88.0188C126.514 87.2258 124.482 89.5533 124.482 89.5533C124.482 89.5533 125.085 88.4461 124.449 88.2704C123.489 88.005 122.784 90.736 122.784 90.736C122.784 90.736 122.963 89.6574 122.301 89.8008C121.115 90.0576 119.896 95.9507 119.896 95.9507Z" fill="#F0F0F0"/>
<path fill-rule="evenodd" clip-rule="evenodd" d="M125.164 76.7679C124.695 77.4539 125.005 79.1334 125.527 80.8611C125.135 80.4561 124.701 80.2387 124.238 80.3668C122.953 80.7219 124.171 82.9593 124.171 82.9593C124.171 82.9593 120.065 78.2561 118.496 79.8586C117.655 80.7195 121.206 85.2443 121.206 85.2443C121.206 85.2443 119.11 84.4107 119.06 86.0534C119.045 86.5543 119.334 87.1366 119.742 87.7039C119.557 88.2278 119.453 88.6245 119.453 88.6245C119.453 88.6245 119.704 87.1296 118.78 87.3281C118.138 87.4658 117.49 88.7709 116.937 90.3204C115.807 89.4224 114.472 88.5654 113.987 89.0704C113.086 90.0076 114.048 90.8849 114.048 90.8849C114.048 90.8849 110.839 90.2901 110.371 91.4892C109.741 93.1048 113.723 94.008 114.711 94.2057C114.109 94.1018 112.494 93.9019 112.907 94.8344C113.118 95.31 114.112 95.593 115.438 95.7533L115.417 95.8525C115.417 95.8525 116.984 95.9613 118.727 95.9364C121.688 95.9707 124.661 95.7544 124.661 95.7544L124.633 95.7189C127.219 96.1339 130.965 96.0146 132.611 95.9334C137.416 96.0536 143.946 95.9212 144.643 94.3633C145.248 93.0106 142.886 93.3008 142.005 93.4515C143.451 93.1646 149.272 91.8544 148.351 89.5107C147.666 87.7715 142.976 88.6342 142.976 88.6342C142.976 88.6342 144.381 87.3618 143.065 86.0021C142.397 85.3122 140.626 86.3745 139.043 87.5884C138.862 87.1569 138.433 87.1308 138.044 87.107C137.677 87.0843 137.345 87.0641 137.292 86.7047C137.2 86.07 138.392 85.7034 139.655 85.3153C141.09 84.8742 142.616 84.4052 142.449 83.4829C142.283 82.5685 141.059 83.057 139.926 83.5096C138.957 83.8963 138.054 84.2568 137.932 83.6939C137.866 83.3895 138.848 83.137 140.043 82.8294C141.812 82.3745 144.048 81.7991 144.048 80.7578C144.048 79.6726 142.291 80.0556 140.731 80.3953C139.783 80.602 138.909 80.7925 138.547 80.6275C138.192 80.4655 139.281 79.8315 140.734 78.986C143.197 77.5522 146.704 75.5107 145.984 74.1324C145.417 73.0451 142.902 74.4146 140.77 75.575C139.399 76.3217 138.187 76.9818 137.754 76.8453C137.219 76.676 138.103 75.6302 139.311 74.2009C140.594 72.682 142.244 70.7303 142.945 68.9371C144.353 65.3377 142.866 63.7007 140.436 66.6676C139.907 67.3145 139.305 68.0871 138.685 68.8832L138.684 68.8834C136.46 71.7392 133.997 74.9003 133.767 73.672C133.665 73.1249 133.905 72.0288 134.161 70.859C134.64 68.6703 135.175 66.2244 133.63 66.6351C130.284 67.5245 129.742 72.4073 129.198 77.2994C129.064 78.5079 128.929 79.7169 128.753 80.8662C128.727 81.0331 128.565 80.6388 128.312 80.0216C127.634 78.3665 126.298 75.1084 125.164 76.7679Z" fill="white"/>
<path d="M125.527 80.861L125.243 81.1311L125.903 80.7493L125.527 80.861ZM124.171 82.9592L123.873 83.2144L124.517 82.7739L124.171 82.9592ZM118.496 79.8585L118.214 79.5869L118.214 79.5871L118.496 79.8585ZM121.205 85.2442L121.059 85.6061L122.41 86.1433L121.516 85.0045L121.205 85.2442ZM119.742 87.7037L120.113 87.8328L120.181 87.6419L120.062 87.4771L119.742 87.7037ZM119.453 88.6243L119.065 88.5604L119.834 88.7218L119.453 88.6243ZM118.779 87.328L118.863 87.7092H118.863L118.779 87.328ZM116.937 90.3202L116.691 90.6244L117.122 90.9678L117.307 90.4505L116.937 90.3202ZM114.047 90.8848L113.975 91.2681L115.322 91.5177L114.314 90.5977L114.047 90.8848ZM114.711 94.2056L114.644 94.59L114.789 93.8234L114.711 94.2056ZM115.438 95.7531L115.823 95.8346L115.913 95.4177L115.486 95.3661L115.438 95.7531ZM115.417 95.8524L115.032 95.7734L114.941 96.2102L115.39 96.2414L115.417 95.8524ZM118.727 95.9362L118.732 95.5462H118.722L118.727 95.9362ZM124.661 95.7543L124.689 96.1433L125.42 96.0901L124.971 95.5156L124.661 95.7543ZM124.633 95.7188L124.696 95.3339L123.706 95.1752L124.322 95.9587L124.633 95.7188ZM132.611 95.9333L132.621 95.5435L132.606 95.5431L132.591 95.5439L132.611 95.9333ZM144.643 94.3632L144.283 94.205V94.2052L144.643 94.3632ZM142.005 93.4514L141.928 93.069L142.072 93.8357L142.005 93.4514ZM148.35 89.5106L148.717 89.369V89.3688L148.35 89.5106ZM142.975 88.6341L142.71 88.3461L141.694 89.2665L143.047 89.0175L142.975 88.6341ZM139.043 87.5883L138.68 87.7384L138.878 88.208L139.284 87.8968L139.043 87.5883ZM137.292 86.7046L136.903 86.7605V86.7607L137.292 86.7046ZM142.449 83.4828L142.836 83.4137V83.4135L142.449 83.4828ZM140.733 78.9859L140.933 79.3222L140.937 79.3195L140.942 79.3166L140.733 78.9859ZM140.733 78.9859L140.534 78.6495L140.53 78.6522L140.525 78.6551L140.733 78.9859ZM138.684 68.8831L138.993 69.1245L138.995 69.123L138.996 69.1216L138.684 68.8831ZM138.684 68.8833L138.375 68.6419L138.374 68.6435L138.373 68.645L138.684 68.8833ZM129.198 77.2993L128.807 77.2566L128.804 77.2781V77.2993H129.198ZM129.198 77.2993L129.589 77.342L129.591 77.3208V77.2993H129.198ZM128.753 80.8661L129.141 80.9249V80.9248L128.753 80.8661ZM128.312 80.0215L127.939 80.1448L127.943 80.1566L127.948 80.1683L128.312 80.0215ZM128.312 80.0215L128.685 79.8981L128.681 79.8862L128.677 79.8747L128.312 80.0215ZM125.903 80.7493C125.645 79.8946 125.445 79.0678 125.365 78.379C125.325 78.0347 125.316 77.7367 125.341 77.4931C125.366 77.2459 125.423 77.0838 125.49 76.9867L124.839 76.549C124.671 76.7948 124.591 77.1 124.558 77.4146C124.526 77.7328 124.539 78.0912 124.583 78.4685C124.671 79.223 124.886 80.0997 125.15 80.9729L125.903 80.7493ZM124.343 80.7422C124.6 80.6714 124.891 80.768 125.243 81.1311L125.81 80.5909C125.378 80.144 124.802 79.8058 124.132 79.9909L124.343 80.7422ZM124.171 82.9592L124.517 82.7739L124.517 82.7741L124.517 82.7736C124.513 82.7672 124.51 82.7608 124.507 82.7544C124.499 82.74 124.488 82.7182 124.474 82.6897C124.434 82.6103 124.397 82.53 124.361 82.4489C124.272 82.2451 124.17 81.9776 124.105 81.7063C124.038 81.4267 124.023 81.1868 124.066 81.0176C124.102 80.8801 124.171 80.79 124.343 80.7422L124.132 79.9909C123.662 80.1208 123.402 80.4437 123.304 80.8255C123.214 81.1757 123.262 81.5616 123.34 81.8857C123.419 82.2184 123.541 82.5323 123.64 82.7591C123.69 82.8736 123.735 82.9684 123.768 83.0349C123.785 83.0684 123.799 83.0947 123.808 83.1134L123.82 83.1353L123.823 83.1415L123.824 83.1433L123.824 83.1441L123.825 83.1442L124.171 82.9592ZM118.778 80.1303C119.012 79.892 119.366 79.8396 119.912 80.034C120.455 80.2274 121.075 80.6326 121.675 81.1118C122.27 81.5862 122.82 82.1121 123.223 82.5218C123.43 82.7318 123.633 82.9464 123.83 83.1655L123.863 83.2025L123.871 83.2117L123.873 83.2139L123.873 83.2144L124.171 82.9592L124.468 82.7037L124.468 82.7035C124.467 82.7023 124.466 82.701 124.464 82.6996L124.455 82.6887C124.398 82.6244 124.34 82.5606 124.282 82.4974C124.164 82.3693 123.995 82.1885 123.786 81.977C123.371 81.5548 122.797 81.0051 122.169 80.5041C121.546 80.0077 120.846 79.5375 120.178 79.2998C119.513 79.0631 118.765 79.0237 118.214 79.5869L118.778 80.1303ZM121.205 85.2442L121.516 85.0047V85.0045L121.515 85.0042C121.515 85.0034 121.514 85.0026 121.514 85.0018L121.507 84.9926L121.478 84.9558C121.31 84.7375 121.145 84.5172 120.982 84.2949C120.666 83.8615 120.253 83.2765 119.869 82.6673C119.481 82.0538 119.132 81.4321 118.931 80.9214C118.83 80.6644 118.775 80.4577 118.763 80.3062C118.75 80.1483 118.788 80.1206 118.779 80.1301L118.214 79.5871C117.994 79.8119 117.959 80.1139 117.979 80.368C118 80.6287 118.085 80.9168 118.198 81.205C118.426 81.7847 118.807 82.4557 119.202 83.0813C119.6 83.7107 120.023 84.3107 120.345 84.7526C120.512 84.9806 120.682 85.2065 120.854 85.4304L120.884 85.4696L120.892 85.48L120.894 85.4825L120.895 85.4833L120.895 85.4835C120.895 85.4837 120.895 85.4837 121.205 85.2442ZM119.453 86.065C119.463 85.744 119.566 85.6108 119.654 85.5447C119.759 85.4655 119.926 85.4215 120.149 85.4226C120.368 85.424 120.595 85.4683 120.775 85.5162C120.866 85.5405 120.956 85.5686 121.044 85.6005L121.057 85.6053L121.06 85.6063C121.06 85.6063 121.06 85.6063 121.06 85.6063L121.059 85.6061C121.059 85.6061 121.059 85.6061 121.205 85.2442C121.352 84.8823 121.352 84.8821 121.352 84.8821L121.351 84.8819L121.351 84.8817L121.348 84.8807C121.346 84.88 121.344 84.8791 121.342 84.8782L121.32 84.87C121.208 84.8288 121.095 84.7931 120.979 84.7629C120.765 84.7058 120.465 84.6446 120.154 84.6426C119.848 84.6409 119.48 84.6964 119.179 84.923C118.86 85.1627 118.682 85.5414 118.667 86.0416L119.453 86.065ZM120.062 87.4771C119.662 86.921 119.442 86.4298 119.453 86.065L118.667 86.0416C118.648 86.6788 119.005 87.352 119.422 87.9303L120.062 87.4771ZM119.453 88.6243L119.834 88.7218L119.834 88.7214L119.835 88.7187L119.838 88.7066L119.852 88.6575C119.93 88.3799 120.017 88.1049 120.113 87.8328L119.371 87.5746C119.292 87.798 119.219 88.0232 119.151 88.2501C119.124 88.3413 119.098 88.4329 119.073 88.5249L119.073 88.5261L119.073 88.5264V88.5266L119.453 88.6243ZM118.863 87.7092C118.93 87.6948 118.962 87.7008 118.971 87.7032C118.978 87.7049 118.984 87.7088 118.988 87.7141C119.013 87.7402 119.052 87.8137 119.074 87.9598C119.095 88.0959 119.094 88.2456 119.086 88.3685C119.082 88.4282 119.076 88.4783 119.072 88.5128L119.067 88.5512C119.066 88.5541 119.066 88.5569 119.066 88.5598L119.065 88.5611V88.5606L119.453 88.6243L119.841 88.6879L119.842 88.6877V88.6869L119.842 88.6854L119.843 88.6803L119.845 88.6639C119.857 88.5828 119.866 88.5011 119.871 88.4192C119.881 88.2679 119.884 88.0565 119.852 87.8437C119.821 87.6409 119.749 87.3779 119.561 87.1796C119.345 86.952 119.039 86.8732 118.696 86.9469L118.863 87.7092ZM117.307 90.4505C117.581 89.6842 117.872 88.9962 118.166 88.489C118.313 88.2353 118.454 88.0399 118.584 87.905C118.717 87.7661 118.811 87.7203 118.863 87.7092L118.696 86.9469C118.427 87.0047 118.2 87.1735 118.014 87.3666C117.825 87.5635 117.648 87.817 117.484 88.1004C117.155 88.6676 116.846 89.4069 116.566 90.19L117.307 90.4505ZM114.271 89.3392C114.278 89.3328 114.309 89.2982 114.45 89.3138C114.595 89.3298 114.795 89.3954 115.045 89.5184C115.542 89.7627 116.132 90.1802 116.691 90.6244L117.183 90.0158C116.612 89.5623 115.969 89.1021 115.395 88.8197C115.109 88.6793 114.814 88.5693 114.537 88.5385C114.255 88.5073 113.938 88.5553 113.701 88.8014L114.271 89.3392ZM114.047 90.8848C114.314 90.5977 114.314 90.5979 114.314 90.5979L114.314 90.5983L114.315 90.5987L114.315 90.5993L114.316 90.5995L114.313 90.5966C114.28 90.5639 114.25 90.5295 114.222 90.4934C114.149 90.4019 114.09 90.3002 114.048 90.1915C114.002 90.0724 113.982 89.9455 114.004 89.814C114.026 89.6855 114.094 89.5241 114.271 89.3392L113.701 88.8014C113.429 89.0851 113.279 89.3846 113.228 89.6842C113.178 89.9809 113.229 90.2491 113.311 90.4663C113.382 90.6484 113.479 90.8191 113.601 90.9725C113.651 91.0358 113.704 91.0959 113.761 91.1527L113.774 91.1648L113.778 91.1689L113.78 91.1704C113.78 91.1707 113.78 91.1709 113.781 91.171L113.781 91.1714C113.781 91.1714 113.781 91.1716 114.047 90.8848ZM110.738 91.6299C110.791 91.4926 110.941 91.3594 111.26 91.2613C111.572 91.1652 111.972 91.1277 112.385 91.1272C112.794 91.1268 113.193 91.1619 113.492 91.1977C113.643 91.2159 113.794 91.2376 113.944 91.2627L113.968 91.2668L113.974 91.2679L113.975 91.2681L114.047 90.8848L114.12 90.5014L114.119 90.5012H114.119C114.118 90.501 114.117 90.5008 114.116 90.5006L114.108 90.4993C114.062 90.4913 114.016 90.4836 113.97 90.4762C113.842 90.4564 113.714 90.4388 113.586 90.4234C113.268 90.3852 112.836 90.3466 112.384 90.3472C111.938 90.3479 111.447 90.3867 111.026 90.5162C110.612 90.6439 110.185 90.8857 110.004 91.3483L110.738 91.6299ZM114.789 93.8234C114.3 93.7255 113.092 93.4568 112.092 93.022C111.587 92.8024 111.176 92.5573 110.93 92.2995C110.699 92.0569 110.651 91.8516 110.738 91.6297L110.004 91.3483C109.776 91.9343 109.989 92.4477 110.358 92.8352C110.713 93.2072 111.24 93.5032 111.776 93.7363C112.857 94.2062 114.134 94.488 114.633 94.588L114.789 93.8234ZM113.267 94.6773C113.201 94.5272 113.26 94.5478 113.219 94.5919C113.217 94.5948 113.229 94.5808 113.277 94.5629C113.324 94.5451 113.39 94.5291 113.477 94.5182C113.841 94.4726 114.344 94.5383 114.644 94.59L114.778 93.8215C114.476 93.7692 113.87 93.6828 113.379 93.7444C113.146 93.7735 112.842 93.8462 112.64 94.0642C112.394 94.3296 112.407 94.6752 112.547 94.9913L113.267 94.6773ZM115.486 95.3661C114.833 95.2871 114.285 95.1804 113.882 95.0431C113.681 94.9745 113.53 94.9029 113.425 94.8325C113.318 94.7614 113.28 94.706 113.267 94.6773L112.547 94.9913C112.64 95.2003 112.805 95.3587 112.985 95.4794C113.167 95.6008 113.387 95.6991 113.626 95.7806C114.105 95.9439 114.716 96.0587 115.391 96.1402L115.486 95.3661ZM115.417 95.8524L115.802 95.9314V95.9312L115.803 95.93L115.804 95.9255L115.807 95.9072L115.823 95.8346L115.054 95.6718L115.038 95.7469C115.036 95.7551 115.034 95.7633 115.032 95.7715L115.032 95.7728L115.032 95.7734L115.417 95.8524ZM118.722 95.5462C117.959 95.5555 117.196 95.5448 116.434 95.5139C116.193 95.5045 115.952 95.493 115.712 95.4796C115.625 95.4747 115.558 95.4706 115.513 95.4679L115.461 95.4645L115.449 95.4636L115.446 95.4634H115.445L115.417 95.8524L115.39 96.2414H115.39L115.391 96.2416L115.395 96.2418L115.409 96.2428L115.463 96.2463L115.667 96.2584C115.843 96.2683 116.095 96.2812 116.403 96.2933C117.017 96.3177 117.852 96.3387 118.733 96.3262L118.722 95.5462ZM124.661 95.7543L124.632 95.3655H124.63C124.628 95.3657 124.626 95.3659 124.624 95.3661L124.599 95.3678L124.5 95.3745C123.929 95.4117 123.358 95.4431 122.786 95.4686C121.677 95.5182 120.202 95.5634 118.732 95.5462L118.723 96.3262C120.213 96.3436 121.704 96.2978 122.822 96.2479C123.399 96.2219 123.977 96.1902 124.554 96.1527L124.654 96.1459L124.68 96.1439L124.687 96.1435L124.689 96.1433H124.689L124.661 95.7543ZM124.322 95.9587L124.343 95.9846L124.348 95.991L124.349 95.9926L124.349 95.993L124.35 95.9932L124.661 95.7543L124.971 95.5156V95.5154L124.971 95.5149L124.969 95.5131L124.964 95.5061L124.943 95.4792L124.322 95.9587ZM132.591 95.5439C130.943 95.625 127.235 95.7414 124.696 95.3339L124.57 96.1039C127.202 96.5263 130.988 96.4037 132.63 96.3229L132.591 95.5439ZM144.283 94.2052C144.241 94.2984 144.138 94.4184 143.919 94.549C143.704 94.6779 143.408 94.799 143.033 94.9086C142.284 95.1276 141.282 95.2836 140.131 95.3893C137.834 95.5999 135.019 95.6034 132.621 95.5435L132.601 96.3233C135.008 96.3834 137.86 96.3808 140.204 96.166C141.373 96.0585 142.434 95.8969 143.256 95.6568C143.666 95.5367 144.032 95.3928 144.326 95.2167C144.617 95.0424 144.87 94.8173 145.002 94.5211L144.283 94.2052ZM142.072 93.8357C142.511 93.7604 143.271 93.6606 143.832 93.7304C144.126 93.7669 144.27 93.8394 144.321 93.8938C144.336 93.91 144.344 93.9254 144.347 93.9562C144.349 93.9952 144.342 94.0738 144.283 94.205L145.002 94.5211C145.095 94.3142 145.146 94.1062 145.132 93.9026C145.119 93.7016 145.037 93.5111 144.898 93.3638C144.649 93.0968 144.261 92.9976 143.93 92.9565C143.242 92.8708 142.381 92.9914 141.938 93.067L142.072 93.8357ZM147.984 89.6524C148.142 90.0547 148.036 90.4211 147.666 90.8058C147.282 91.2057 146.654 91.5731 145.909 91.8947C144.428 92.5337 142.645 92.9266 141.928 93.069L142.082 93.8338C142.81 93.6893 144.662 93.2837 146.222 92.6099C146.998 92.2751 147.743 91.8574 148.236 91.3436C148.744 90.8146 149.019 90.1383 148.717 89.369L147.984 89.6524ZM142.975 88.6341L143.047 89.0175L143.049 89.0171L143.058 89.0155L143.095 89.0091C143.128 89.0036 143.177 88.9954 143.239 88.9857C143.365 88.9662 143.546 88.9398 143.766 88.9137C144.207 88.8611 144.798 88.8094 145.406 88.8102C146.019 88.8109 146.624 88.8655 147.106 89.0126C147.595 89.1619 147.877 89.3805 147.984 89.6524L148.717 89.3688C148.482 88.7712 147.921 88.4453 147.338 88.2673C146.748 88.0869 146.052 88.0311 145.407 88.0302C144.757 88.0292 144.132 88.0844 143.672 88.1392C143.487 88.1612 143.302 88.1865 143.117 88.215C143.05 88.2256 142.998 88.2343 142.962 88.2404L142.92 88.2478L142.908 88.2497C142.907 88.2499 142.906 88.2501 142.905 88.2503L142.904 88.2505H142.904L142.975 88.6341ZM142.781 86.272C143.062 86.5628 143.18 86.828 143.218 87.0522C143.257 87.2794 143.22 87.4949 143.146 87.6895C143.071 87.8861 142.96 88.0532 142.865 88.1733C142.817 88.2342 142.765 88.2921 142.71 88.3466L142.709 88.3472L142.709 88.3468L142.71 88.3465L142.71 88.3463C142.71 88.3463 142.71 88.3461 142.975 88.6341C143.241 88.9221 143.241 88.9219 143.241 88.9217L143.241 88.9215L143.242 88.9207C143.329 88.8375 143.409 88.7486 143.484 88.6548C143.611 88.4937 143.77 88.2579 143.881 87.9662C143.994 87.6729 144.061 87.3153 143.994 86.9214C143.926 86.5248 143.725 86.1211 143.349 85.7319L142.781 86.272ZM139.284 87.8968C140.069 87.2948 140.879 86.7477 141.562 86.4355C141.905 86.2785 142.189 86.1935 142.407 86.1771C142.619 86.1609 142.722 86.211 142.781 86.272L143.349 85.7319C143.074 85.4482 142.705 85.3721 142.347 85.3992C141.996 85.4257 141.614 85.5529 141.232 85.727C140.467 86.077 139.6 86.6679 138.802 87.2798L139.284 87.8968ZM138.02 87.4961C138.227 87.5087 138.372 87.5204 138.489 87.5618C138.58 87.5943 138.639 87.6398 138.68 87.7384L139.406 87.4381C139.266 87.1053 139.019 86.9218 138.754 86.8276C138.513 86.7418 138.25 86.7285 138.068 86.7174L138.02 87.4961ZM136.903 86.7607C136.925 86.9099 136.98 87.0487 137.077 87.1651C137.174 87.2804 137.293 87.3508 137.406 87.395C137.612 87.475 137.856 87.4859 138.02 87.4961L138.068 86.7174C137.988 86.7136 137.909 86.7072 137.829 86.6981C137.761 86.6895 137.719 86.6788 137.694 86.6691C137.672 86.6603 137.675 86.657 137.683 86.6667C137.692 86.6775 137.686 86.679 137.681 86.6486L136.903 86.7607ZM139.539 84.9427C138.918 85.1332 138.269 85.3316 137.79 85.5683C137.55 85.6867 137.32 85.83 137.153 86.0125C136.977 86.2048 136.859 86.4587 136.903 86.7605L137.681 86.6488C137.679 86.6332 137.675 86.6032 137.736 86.5361C137.807 86.4592 137.936 86.3676 138.141 86.2664C138.55 86.0642 139.129 85.8852 139.771 85.6876L139.539 84.9427ZM142.062 83.552C142.081 83.6581 142.058 83.7501 141.974 83.8564C141.881 83.9755 141.715 84.1035 141.467 84.2359C140.968 84.5018 140.268 84.7185 139.539 84.9427L139.771 85.6876C140.477 85.4708 141.258 85.2323 141.839 84.923C142.13 84.7678 142.405 84.5781 142.595 84.3359C142.795 84.081 142.9 83.7688 142.836 83.4137L142.062 83.552ZM140.072 83.8712C140.656 83.6382 141.194 83.4262 141.604 83.3699C141.808 83.3418 141.919 83.3624 141.971 83.3878C141.995 83.3997 142.038 83.4233 142.062 83.552L142.836 83.4135C142.776 83.0852 142.604 82.827 142.317 82.6874C142.057 82.5612 141.76 82.5608 141.496 82.5973C140.969 82.6698 140.328 82.9282 139.778 83.1478L140.072 83.8712ZM137.547 83.7757C137.606 84.0459 137.78 84.2413 138.032 84.3261C138.246 84.3983 138.483 84.3788 138.684 84.341C139.093 84.2641 139.602 84.0588 140.072 83.8712L139.778 83.1478C139.28 83.3468 138.853 83.5153 138.538 83.5746C138.377 83.6048 138.304 83.5941 138.285 83.5875C138.282 83.5867 138.295 83.591 138.309 83.6062C138.322 83.621 138.32 83.6288 138.316 83.6119L137.547 83.7757ZM139.944 82.452C139.354 82.6037 138.788 82.7488 138.38 82.8964C138.179 82.9689 137.984 83.0528 137.838 83.1554C137.715 83.2421 137.477 83.4518 137.547 83.7757L138.316 83.6119C138.354 83.7836 138.214 83.8474 138.293 83.7918C138.35 83.7517 138.463 83.6963 138.649 83.6292C139.014 83.4976 139.536 83.3626 140.142 83.2068L139.944 82.452ZM143.655 80.7576C143.655 80.8647 143.601 80.9981 143.411 81.1642C143.219 81.3317 142.928 81.4961 142.554 81.6548C141.807 81.9717 140.837 82.2223 139.944 82.452L140.142 83.2068C141.018 82.9814 142.05 82.7168 142.863 82.3719C143.269 82.1997 143.648 81.9965 143.931 81.7492C144.216 81.5002 144.441 81.1712 144.441 80.7576H143.655ZM140.816 80.776C141.61 80.6028 142.393 80.4343 142.976 80.432C143.27 80.4308 143.451 80.4737 143.548 80.5307C143.609 80.5665 143.655 80.6133 143.655 80.7576H144.441C144.441 80.3593 144.267 80.0469 143.95 79.8601C143.668 79.6941 143.313 79.6506 142.973 79.652C142.287 79.6547 141.411 79.8476 140.647 80.0143L140.816 80.776ZM138.382 80.9817C138.546 81.0562 138.732 81.0772 138.902 81.0798C139.078 81.0821 139.272 81.0646 139.473 81.0369C139.874 80.9815 140.346 80.8783 140.816 80.776L140.647 80.0143C140.168 80.1186 139.729 80.214 139.365 80.2643C139.184 80.2894 139.033 80.3015 138.913 80.2998C138.787 80.298 138.728 80.2811 138.711 80.2731L138.382 80.9817ZM140.534 78.6495C139.814 79.0685 139.162 79.4478 138.737 79.7434C138.532 79.8854 138.339 80.0354 138.224 80.182C138.172 80.2477 138.079 80.3827 138.086 80.5603C138.095 80.7916 138.257 80.9244 138.382 80.9817L138.711 80.2731C138.748 80.2898 138.866 80.3672 138.872 80.5297C138.876 80.6383 138.821 80.6908 138.845 80.6609C138.879 80.6167 138.983 80.5248 139.188 80.3823C139.581 80.1091 140.2 79.7487 140.933 79.3222L140.534 78.6495ZM145.635 74.3117C145.721 74.4763 145.715 74.7044 145.484 75.0586C145.253 75.4125 144.845 75.8103 144.308 76.2329C143.239 77.0743 141.773 77.9288 140.534 78.6495L140.933 79.322C142.158 78.6091 143.676 77.726 144.797 76.8436C145.355 76.4043 145.843 75.9437 146.144 75.4825C146.445 75.0213 146.608 74.4775 146.334 73.9529L145.635 74.3117ZM140.96 75.9168C142.034 75.3318 143.167 74.7162 144.099 74.3769C144.568 74.2062 144.947 74.1208 145.223 74.1259C145.482 74.1306 145.581 74.209 145.635 74.3117L146.334 73.9531C146.103 73.512 145.675 73.3539 145.237 73.3459C144.814 73.3383 144.325 73.4639 143.828 73.6446C142.828 74.0085 141.638 74.6576 140.581 75.2331L140.96 75.9168ZM137.635 77.2168C137.86 77.2878 138.114 77.2424 138.321 77.1848C138.546 77.1224 138.803 77.0197 139.075 76.8955C139.619 76.6472 140.278 76.2878 140.96 75.9168L140.581 75.2331C139.891 75.6087 139.259 75.9528 138.746 76.187C138.489 76.3042 138.276 76.3875 138.109 76.4337C137.924 76.485 137.865 76.4708 137.874 76.4735L137.635 77.2168ZM139.009 73.9504C138.412 74.6567 137.87 75.2965 137.55 75.7816C137.395 76.0158 137.256 76.2639 137.215 76.4918C137.193 76.6119 137.189 76.7685 137.268 76.9202C137.352 77.0813 137.494 77.1724 137.635 77.2168L137.874 76.4735C137.88 76.4756 137.933 76.4971 137.967 76.563C137.997 76.6194 137.984 76.6554 137.989 76.6314C138 76.571 138.057 76.4364 138.208 76.2095C138.497 75.7721 139.001 75.1742 139.612 74.4513L139.009 73.9504ZM142.578 68.7959C141.905 70.5162 140.306 72.4153 139.009 73.9504L139.612 74.4513C140.882 72.9487 142.582 70.9441 143.312 69.0779L142.578 68.7959ZM140.742 66.9132C141.332 66.1927 141.834 65.7908 142.214 65.6192C142.584 65.4519 142.76 65.5264 142.854 65.6176C142.986 65.7469 143.115 66.0589 143.096 66.6336C143.077 67.1907 142.92 67.9235 142.578 68.7959L143.312 69.0779C143.675 68.1507 143.86 67.3292 143.882 66.6595C143.904 66.0078 143.773 65.4211 143.406 65.0621C143 64.6651 142.436 64.6616 141.888 64.9094C141.35 65.1526 140.756 65.6588 140.131 66.4216L140.742 66.9132ZM138.996 69.1216C139.617 68.3242 140.215 67.5557 140.742 66.9132L140.131 66.4216C139.598 67.0731 138.993 67.8496 138.373 68.6448L138.996 69.1216ZM138.993 69.1247L138.993 69.1245L138.376 68.6417L138.375 68.6419L138.993 69.1247ZM133.381 73.7431C133.421 73.9601 133.543 74.2285 133.849 74.3121C134.103 74.3813 134.349 74.276 134.515 74.1824C134.872 73.9808 135.307 73.569 135.767 73.0733C136.704 72.0643 137.888 70.5443 138.996 69.1218L138.373 68.645C137.257 70.0781 136.097 71.5665 135.188 72.545C134.726 73.043 134.364 73.3697 134.125 73.5046C133.993 73.5791 133.991 73.5419 134.058 73.56C134.177 73.5924 134.171 73.6908 134.154 73.6007L133.381 73.7431ZM133.776 70.7762C133.649 71.3581 133.522 71.9356 133.441 72.437C133.362 72.9241 133.315 73.396 133.381 73.7431L134.154 73.6007C134.116 73.4009 134.138 73.051 134.218 72.5608C134.295 72.0846 134.416 71.5295 134.545 70.9415L133.776 70.7762ZM133.731 67.0117C133.883 66.9713 133.974 66.976 134.023 66.9877C134.062 66.9963 134.097 67.0191 134.12 67.0517C134.195 67.1484 134.261 67.3695 134.261 67.772C134.26 68.5542 134.019 69.6651 133.776 70.7762L134.545 70.9415C134.781 69.864 135.047 68.6577 135.048 67.7724C135.048 67.3411 134.988 66.8908 134.744 66.5761C134.611 66.4026 134.422 66.2801 134.208 66.2298C133.993 66.1779 133.762 66.196 133.528 66.2582L133.731 67.0117ZM129.589 77.342C129.862 74.8842 130.13 72.483 130.738 70.5841C131.347 68.6819 132.256 67.4038 133.731 67.0117L133.528 66.2582C131.657 66.7557 130.623 68.3636 129.988 70.3483C129.352 72.3362 129.077 74.8224 128.807 77.2566L129.589 77.342ZM129.141 80.9248C129.32 79.7661 129.455 78.5489 129.589 77.342L128.807 77.2566C128.672 78.4666 128.539 79.6674 128.364 80.8074L129.141 80.9248ZM127.948 80.1683C128.072 80.4708 128.181 80.7383 128.263 80.907C128.284 80.9505 128.307 80.9932 128.329 81.0314C128.348 81.0636 128.381 81.1164 128.427 81.1634C128.449 81.1857 128.497 81.2309 128.57 81.2619C128.627 81.2859 128.688 81.2969 128.75 81.2941C128.811 81.2912 128.871 81.2745 128.925 81.2453C129.039 81.1835 129.089 81.088 129.108 81.0449C129.129 80.9963 129.137 80.9521 129.141 80.9249L128.364 80.8072C128.365 80.8009 128.369 80.7732 128.385 80.737C128.418 80.6617 128.475 80.5997 128.548 80.5607C128.598 80.5335 128.654 80.5179 128.711 80.515C128.768 80.5121 128.825 80.5221 128.878 80.5441C128.942 80.5712 128.98 80.6087 128.99 80.6192C129.014 80.643 129.02 80.6578 129.008 80.6385C128.995 80.6156 128.983 80.5923 128.972 80.5685C128.904 80.4277 128.806 80.1892 128.677 79.8747L127.948 80.1683ZM125.49 76.9867C125.607 76.8145 125.702 76.7445 125.761 76.7178C125.809 76.696 125.853 76.6929 125.914 76.7131C126.077 76.7672 126.309 76.9715 126.584 77.3715C127.116 78.1439 127.604 79.3289 127.948 80.1683L128.677 79.8747C128.342 79.0588 127.823 77.7872 127.234 76.9317C126.949 76.5179 126.592 76.1155 126.164 75.9735C125.93 75.8959 125.678 75.8975 125.433 76.0088C125.2 76.1149 125.004 76.3062 124.839 76.549L125.49 76.9867Z" fill="#F0F0F0"/>
<path fill-rule="evenodd" clip-rule="evenodd" d="M61.8742 86.5211C63.549 88.3307 62.8878 97.6238 62.8878 97.6238C62.8878 97.6238 58.9987 96.8329 55.5502 95.7132C53.6052 95.8419 39.6273 96.6835 38.5902 94.3632C37.9855 93.0105 40.3465 93.3007 41.2275 93.4514C39.782 93.1645 33.9607 91.8543 34.8823 89.5106C35.5667 87.7714 40.2574 88.6341 40.2574 88.6341C40.2574 88.6341 38.8522 87.3617 40.1681 86.002C41.4838 84.6425 47.0857 90.0878 47.0857 90.0878C47.0857 90.0878 44.814 85.8602 47.434 87.0804C47.8153 87.258 48.2788 87.5875 48.79 88.0181C49.354 88.1688 49.8502 88.4344 49.8502 88.4344C49.8502 88.4344 45.1068 84.3636 46.723 82.8079C47.5913 81.9733 52.1547 85.4942 52.1547 85.4942C52.1547 85.4942 51.314 83.4167 52.9707 83.3672C54.6274 83.3176 57.1648 86.5065 57.1648 86.5065C57.1648 86.5065 60.1992 84.7109 61.8742 86.5211Z" fill="white"/>
<path d="M62.888 97.6238L63.2803 97.6513L63.2486 98.0953L62.8089 98.0058L62.888 97.6238ZM55.5503 95.7132L55.5242 95.324L55.6003 95.3189L55.6728 95.3425L55.5503 95.7132ZM38.5904 94.3632L38.9499 94.2051V94.2052L38.5904 94.3632ZM41.2277 93.4514L41.3048 93.069L41.1608 93.8357L41.2277 93.4514ZM34.8824 89.5106L34.516 89.3691V89.3689L34.8824 89.5106ZM40.2575 88.6341L40.5226 88.3461L41.539 89.2665L40.1857 89.0175L40.2575 88.6341ZM47.0858 90.0878L47.4329 89.9045L46.8105 90.3663L47.0858 90.0878ZM47.4341 87.0803L47.6012 86.7274H47.6014L47.4341 87.0803ZM48.7901 88.0181L48.6876 88.3946L48.6027 88.3718L48.5354 88.3153L48.7901 88.0181ZM49.8503 88.4344L50.1078 88.1396L49.6635 88.7776L49.8503 88.4344ZM46.7231 82.8079L46.4492 82.5281L46.4494 82.5279L46.7231 82.8079ZM52.1549 85.4942L52.5199 85.3489L53.0617 86.6882L51.9134 85.8019L52.1549 85.4942ZM57.165 86.5064L57.3665 86.8415L57.07 87.017L56.8562 86.7481L57.165 86.5064ZM62.888 97.6238L62.4956 97.5963V97.5949L62.496 97.5903L62.4972 97.5708L62.5023 97.4939C62.5068 97.4265 62.5129 97.3266 62.5204 97.1987C62.5349 96.943 62.5542 96.5753 62.5719 96.1281C62.6077 95.2333 62.6378 94.0227 62.616 92.7578C62.5939 91.4905 62.5202 90.1791 62.3505 89.0783C62.2655 88.5278 62.1581 88.0393 62.0252 87.64C61.8903 87.2344 61.7388 86.9516 61.5845 86.7847L62.164 86.2574C62.4283 86.5429 62.6229 86.9466 62.7721 87.3955C62.9238 87.8506 63.0394 88.3853 63.1281 88.9603C63.3055 90.111 63.3802 91.4622 63.4024 92.7443C63.4247 94.0288 63.394 95.2547 63.358 96.1589C63.3397 96.6209 63.3162 97.0826 63.2874 97.544L63.2821 97.6234L63.2807 97.6439L63.2803 97.6493V97.6511L62.888 97.6238ZM55.6728 95.3425C57.3833 95.8978 59.2066 96.3729 60.605 96.7094C61.3036 96.8775 61.8948 97.0107 62.3111 97.102C62.5151 97.1465 62.7193 97.1902 62.9237 97.2328L62.9562 97.2396C62.959 97.2401 62.9617 97.2406 62.9645 97.2412L62.9664 97.2416L62.9668 97.2418L62.888 97.6238L62.8087 98.0058L62.8079 98.0056L62.8057 98.0052L62.7969 98.0035C62.7856 98.0012 62.7743 97.9988 62.7631 97.9964L62.6323 97.9691C62.5182 97.9452 62.3518 97.9097 62.1414 97.8636C61.5661 97.7374 60.9922 97.6053 60.4196 97.4674C59.0113 97.1285 57.1659 96.6482 55.428 96.0837L55.6728 95.3425ZM38.9499 94.2052C39.0154 94.3515 39.2238 94.5424 39.6872 94.7321C40.133 94.9149 40.7386 95.0658 41.469 95.1863C42.9267 95.4269 44.809 95.5349 46.7363 95.5665C50.5868 95.6299 54.5544 95.3881 55.5242 95.324L55.5765 96.1022C54.6012 96.1668 50.6073 96.4103 46.7233 96.3465C44.7836 96.3146 42.8553 96.2059 41.3398 95.9558C40.5834 95.831 39.9116 95.6681 39.3869 95.453C38.8797 95.2454 38.4246 94.9548 38.2307 94.5211L38.9499 94.2052ZM41.1608 93.8357C40.7218 93.7605 39.9623 93.6606 39.4008 93.7304C39.1072 93.7669 38.9627 93.8394 38.9119 93.8938C38.8955 93.9105 38.8863 93.9329 38.8864 93.9562C38.8836 93.9952 38.8913 94.0738 38.9499 94.2051L38.2307 94.5211C38.1382 94.3143 38.0873 94.1062 38.1015 93.9026C38.1138 93.7016 38.1964 93.5111 38.3349 93.3638C38.5843 93.0969 38.9717 92.9976 39.3029 92.9565C39.991 92.8709 40.8524 92.9914 41.2945 93.067L41.1608 93.8357ZM35.249 89.6524C35.0907 90.0547 35.1971 90.4211 35.5666 90.8058C35.9507 91.2058 36.5793 91.5731 37.3244 91.8947C38.8049 92.5337 40.5875 92.9266 41.3048 93.069L41.1504 93.8338C40.4223 93.6893 38.5715 93.2837 37.0104 92.61C36.2345 92.2751 35.4903 91.8574 34.9969 91.3436C34.4889 90.8146 34.2134 90.1383 34.516 89.3691L35.249 89.6524ZM40.2575 88.6341L40.1857 89.0175H40.1855C40.1697 89.0148 40.1538 89.012 40.1379 89.0091C40.1051 89.0036 40.0563 88.9954 39.9936 88.9857C39.8679 88.9662 39.6868 88.9399 39.4669 88.9137C39.026 88.8611 38.4352 88.8094 37.8271 88.8102C37.2143 88.811 36.6086 88.8656 36.1267 89.0126C35.6378 89.162 35.356 89.3806 35.249 89.6524L34.516 89.3689C34.7512 88.7712 35.3121 88.4453 35.8953 88.2673C36.4855 88.0869 37.1807 88.0312 37.8261 88.0302C38.4763 88.0292 39.1009 88.0844 39.5607 88.1392C39.7462 88.1613 39.9312 88.1866 40.1157 88.215C40.1824 88.2256 40.2351 88.2343 40.2713 88.2404L40.3134 88.2478L40.3246 88.2497C40.3256 88.2499 40.3267 88.2501 40.3277 88.2503L40.3287 88.2505H40.3289L40.2575 88.6341ZM40.452 86.2721C40.1706 86.5628 40.0532 86.828 40.0148 87.0523C39.9757 87.2794 40.0127 87.4949 40.0872 87.6895C40.1623 87.8861 40.2729 88.0532 40.368 88.1733C40.4143 88.2318 40.4639 88.2876 40.5167 88.3404L40.5234 88.3467L40.524 88.3472L40.5236 88.3469L40.5232 88.3465L40.523 88.3463C40.5228 88.3463 40.5226 88.3461 40.2575 88.6341C40.1697 88.7306 40.0811 88.8265 39.9918 88.9217L39.9916 88.9215L39.9908 88.9207C39.9901 88.9202 39.9895 88.9196 39.9889 88.919L39.9836 88.9141C39.96 88.8916 39.937 88.8687 39.9143 88.8453C39.8563 88.7843 39.8011 88.7207 39.7489 88.6548C39.6217 88.4937 39.4632 88.2579 39.3517 87.9662C39.2394 87.6729 39.1717 87.3153 39.2392 86.9214C39.3074 86.5248 39.5078 86.1211 39.8844 85.7319L40.452 86.2721ZM47.0858 90.0878L46.8105 90.3663H46.8103C46.8086 90.3646 46.8086 90.3646 46.8069 90.363L46.7953 90.3518L46.7495 90.3078C46.709 90.269 46.649 90.212 46.5721 90.1397C46.4181 89.9952 46.1965 89.7899 45.926 89.5475C45.3848 89.0623 44.652 88.4315 43.8809 87.8443C43.1051 87.2537 42.3101 86.7225 41.6417 86.422C41.3061 86.2711 41.0285 86.1906 40.8166 86.1763C40.6111 86.1625 40.5104 86.2118 40.452 86.2721L39.8844 85.7319C40.1549 85.4525 40.5171 85.3745 40.8697 85.3981C41.2161 85.4215 41.5921 85.5433 41.9666 85.7116C42.7186 86.0498 43.571 86.625 44.36 87.2258C45.1537 87.8301 45.9036 88.4758 46.4537 88.9689C46.7382 89.224 47.0189 89.4831 47.2956 89.7464L47.344 89.7928L47.3566 89.8049L47.3597 89.8082L47.3607 89.809L47.3609 89.8092C47.3611 89.8094 47.3611 89.8094 47.0858 90.0878ZM47.2669 87.4333C46.9605 87.2905 46.7701 87.2498 46.6645 87.2492C46.616 87.249 46.5975 87.2572 46.5961 87.2578C46.5953 87.2582 46.5965 87.2578 46.5983 87.2562C46.5998 87.2549 46.6 87.2543 46.5988 87.256C46.59 87.2689 46.5615 87.3301 46.5658 87.4852C46.5697 87.6316 46.6016 87.8161 46.6578 88.0271C46.7697 88.4483 46.9615 88.9157 47.1302 89.2858C47.2188 89.4799 47.3122 89.6719 47.4103 89.8614L47.4276 89.8944L47.4317 89.9024L47.4327 89.9041C47.4328 89.9042 47.4329 89.9044 47.4329 89.9045L47.0858 90.0878C46.7387 90.2713 46.7387 90.2711 46.7385 90.2711V90.2707L46.7379 90.27L46.7365 90.2672C46.7346 90.2639 46.7329 90.2605 46.7312 90.2571L46.7115 90.2198C46.6066 90.0183 46.5071 89.8139 46.4134 89.607C46.238 89.2226 46.0256 88.7092 45.8971 88.226C45.833 87.9849 45.7856 87.7361 45.7793 87.5064C45.7732 87.2851 45.8033 87.0269 45.95 86.8149C46.1154 86.5759 46.3768 86.4675 46.6694 86.4692C46.941 86.471 47.2528 86.565 47.6012 86.7274L47.2669 87.4333ZM48.5354 88.3153C48.0318 87.8911 47.6001 87.5885 47.2669 87.4333L47.6014 86.7274C48.0306 86.9273 48.526 87.2841 49.0448 87.7207L48.5354 88.3153ZM49.8503 88.4344L49.6635 88.7776L49.6637 88.7778L49.6633 88.7776L49.6603 88.7761L49.6466 88.7688C49.5565 88.7232 49.4651 88.6801 49.3726 88.6396C49.1889 88.559 48.9439 88.4631 48.6876 88.3946L48.8924 87.6415C49.2003 87.7238 49.4853 87.836 49.6906 87.9261C49.7983 87.9732 49.9045 88.0233 50.0092 88.0766C50.0183 88.0811 50.0273 88.0858 50.0362 88.0906L50.0368 88.091L50.037 88.0912L49.8503 88.4344ZM46.9973 83.0877C46.757 83.319 46.7041 83.6702 46.9001 84.2117C47.0952 84.7503 47.5039 85.3647 47.9871 85.9601C48.4656 86.5497 48.996 87.0952 49.4092 87.4949C49.621 87.7002 49.8375 87.9008 50.0584 88.0965L50.0958 88.1292L50.105 88.1372L50.1072 88.1392L50.1078 88.1396L49.8503 88.4344L49.5927 88.7293L49.5925 88.7289L49.5915 88.7283L49.5886 88.7256L49.5776 88.7162C49.5128 88.6596 49.4485 88.6024 49.3846 88.5448C49.2554 88.4278 49.0731 88.2597 48.8597 88.0532C48.4339 87.6412 47.8795 87.0718 47.3743 86.4491C46.8738 85.8323 46.3994 85.1374 46.1597 84.4751C45.9209 83.8158 45.8812 83.0748 46.4492 82.5281L46.9973 83.0877ZM52.1549 85.4942L51.9134 85.8019H51.9132L51.9128 85.8015C51.912 85.801 51.9112 85.8004 51.9104 85.7998L51.9012 85.7928L51.864 85.7643C51.6439 85.5977 51.4218 85.4339 51.1975 85.2729C50.7603 84.9589 50.1705 84.5502 49.5559 84.1686C48.9374 83.7844 48.3104 83.4381 47.7952 83.2388C47.536 83.1386 47.3275 83.0846 47.1747 83.0725C47.0154 83.06 46.9875 83.0973 46.9971 83.0879L46.4494 82.5279C46.6761 82.3101 46.9808 82.2748 47.237 82.295C47.5 82.3157 47.7904 82.3998 48.0811 82.5123C48.6658 82.7385 49.3425 83.1158 49.9734 83.5075C50.6083 83.9018 51.2134 84.3213 51.6591 84.6413C51.889 84.8065 52.1169 84.9746 52.3427 85.1454L52.3822 85.1756L52.3926 85.1836L52.3954 85.1855L52.396 85.1861L52.3962 85.1863C52.3964 85.1863 52.3964 85.1865 52.1549 85.4942ZM52.9826 83.757C52.6589 83.7665 52.5246 83.8687 52.4579 83.9559C52.3781 84.0604 52.3336 84.2251 52.3348 84.4469C52.3362 84.6635 52.3808 84.8891 52.4292 85.0677C52.4537 85.1577 52.4821 85.2466 52.5142 85.3341L52.5191 85.3472L52.5201 85.3495C52.5201 85.3497 52.5201 85.3497 52.5201 85.3495V85.3493L52.5199 85.3489L52.1549 85.4942C51.7899 85.6395 51.7897 85.6393 51.7897 85.6391L51.7895 85.6389L51.7893 85.6381L51.7883 85.636C51.7875 85.6337 51.7867 85.6315 51.7857 85.6293L51.7775 85.6077C51.736 85.4969 51.6999 85.3842 51.6695 85.27C51.6121 85.0574 51.5501 84.7604 51.5482 84.4515C51.5464 84.1477 51.6024 83.7837 51.831 83.4847C52.0727 83.1686 52.4546 82.9924 52.959 82.9773L52.9826 83.757ZM57.165 86.5064L56.8562 86.7481L56.856 86.7479C56.8556 86.7474 56.8552 86.747 56.8548 86.7465L56.8501 86.7405L56.8298 86.7155C56.705 86.5634 56.5773 86.4136 56.4469 86.2662C56.1204 85.8961 55.7773 85.5408 55.4186 85.2013C55.0075 84.8148 54.5564 84.4402 54.1166 84.1674C53.6664 83.8882 53.279 83.748 52.9826 83.757L52.959 82.9773C53.4912 82.9614 54.0421 83.2012 54.5338 83.5062C55.0356 83.8174 55.5295 84.2306 55.9598 84.6352C56.336 84.9912 56.6959 85.3637 57.0383 85.7518C57.146 85.8733 57.2518 85.9964 57.3557 86.1211C57.3933 86.166 57.4222 86.2015 57.4423 86.2258L57.4651 86.2543C57.4679 86.2574 57.4705 86.2606 57.4729 86.2641L57.4735 86.2647V86.2648C57.4737 86.2648 57.4737 86.265 57.165 86.5064ZM61.5845 86.7847C60.8916 86.0359 59.8986 86.0035 58.9804 86.2149C58.5292 86.3187 58.1231 86.4762 57.8281 86.6092C57.6804 86.6758 57.5353 86.7482 57.3933 86.8261L57.3715 86.8385C57.3699 86.8393 57.3684 86.8403 57.3669 86.8413L57.3661 86.8417L57.3665 86.8415L57.165 86.5064C56.9634 86.1716 56.9634 86.1716 56.9636 86.1714L56.964 86.1712L56.9647 86.1709L56.9673 86.1693L56.9758 86.1644C56.9828 86.1603 56.9929 86.1545 57.0057 86.1475C57.031 86.1332 57.0674 86.1131 57.1136 86.0888C57.2061 86.0398 57.3386 85.9731 57.5024 85.8992C57.8287 85.7522 58.2858 85.574 58.8026 85.455C59.8201 85.221 61.1821 85.1961 62.164 86.2574L61.5845 86.7847Z" fill="#F0F0F0"/>
<path fill-rule="evenodd" clip-rule="evenodd" d="M63.7925 94.1362C63.7925 94.1362 43.8308 78.3319 43.8308 63.8982C43.8308 53.2697 52.7687 44.655 63.7925 44.655C74.8162 44.655 83.7541 53.2697 83.7541 63.8982C83.7541 78.3319 63.7925 94.1362 63.7925 94.1362Z" fill="#1890FF" stroke="#1890FF" stroke-width="12.8051" stroke-linecap="round" stroke-linejoin="round"/>
<path d="M63.7879 62.1285C62.4562 62.1285 61.386 63.1732 61.386 64.4516C61.386 65.7302 62.4647 66.7664 63.7963 66.7664C65.128 66.7664 66.1984 65.7302 66.1984 64.4434C66.2069 63.1732 65.128 62.1285 63.7879 62.1285Z" stroke="white" stroke-width="21.7746" stroke-linecap="round" stroke-linejoin="round"/>
<path d="M97.002 56.9458C97.086 57.5895 97.311 58.3656 97.675 58.6291C98.088 58.9282 98.2156 59.2459 98.2156 59.2459L98.6351 59.1175L99.1368 58.9643C99.1368 58.9643 99.1376 58.9136 99.1344 58.8289C99.1306 58.7175 99.1216 58.6063 99.1075 58.4957C99.1075 58.4957 99.0119 58.2919 99.1461 58.0936C99.28 57.8959 99.3415 57.5566 99.2473 57.3194C99.1533 57.0831 99.1339 56.5476 99.045 56.5435C98.8298 56.5315 98.9773 57.2943 98.8585 57.4019C98.7517 57.5 98.6603 57.437 98.644 57.4236C98.6428 57.4228 98.6416 57.4219 98.6406 57.4208C98.1196 57.0351 97.7342 55.5106 97.38 55.6235C97.2478 55.6655 96.9656 56.6717 97.002 56.9458ZM118.181 72.7868C118.181 72.7868 117.737 73.5501 117.936 73.9902C118.134 74.4307 118.824 75.0178 119.002 75.2481C119.179 75.478 119.78 76.0857 120.023 75.6947C120.265 75.3047 119.837 74.2673 119.541 73.8765C119.244 73.4846 119.216 72.8124 119.216 72.8124L118.181 72.7868Z" fill="#FFBB96"/>
<path d="M117.896 73.8631C117.896 73.8631 117.93 74.7039 117.971 74.9285C118.011 75.1536 118.051 75.0847 118.206 74.9336C118.361 74.7827 118.359 74.3426 118.418 74.3135C118.476 74.2846 117.896 73.8631 117.896 73.8631Z" fill="#FFBB96"/>
<path d="M110.117 56.854C110.117 56.854 104.928 62.3991 103.313 63.2678L99.2439 58.5051C99.2439 58.5051 98.48 58.5583 98.002 59.197C98.002 59.197 99.5806 65.9141 102.461 66.8445C105.342 67.7746 111.214 61.2345 111.214 61.2345L110.117 56.854ZM105.279 97.5H110.607C110.863 97.2009 110.769 96.0962 110.73 95.7351C110.722 95.6622 110.717 95.6204 110.717 95.6204C110.717 95.6204 108.898 94.2273 108.648 95.294C108.64 95.3272 108.631 95.3602 108.621 95.3927C108.306 96.3903 106.894 96.8437 106.079 96.97C105.548 97.0519 105.352 97.3158 105.279 97.5Z" fill="#253E5F"/>
<path d="M108.866 97.5H114.194C114.45 97.2009 114.356 96.0962 114.317 95.7351C114.309 95.6621 114.304 95.6204 114.304 95.6204C114.304 95.6204 112.484 94.2273 112.235 95.294C112.227 95.3272 112.218 95.3601 112.208 95.3926C111.893 96.3903 110.481 96.8436 109.666 96.97C109.135 97.0519 108.939 97.3157 108.866 97.5Z" fill="#253E5F"/>
<path d="M106.735 73.7483C106.735 73.7483 106.99 76.4818 107.289 79.7669C107.696 84.2301 108.185 89.7125 108.234 90.7509C108.318 92.5545 108.653 95.4389 108.653 95.4389C108.653 95.4389 109.449 96.1243 111.043 95.8353C111.043 95.8353 112.464 91.7173 112.87 87.3598L112.888 87.1446C113.266 82.7093 113.852 73.369 113.852 73.369L106.735 73.7483Z" fill="#1890FF"/>
<path d="M108.18 73.9352C108.18 73.9352 108.66 76.6414 109.23 79.8944C110.006 84.3137 110.948 89.7429 111.081 90.7739C111.312 92.5644 111.887 95.4164 111.887 95.4164C111.887 95.4164 112.753 96.0521 114.353 95.6711C114.353 95.6711 115.466 91.4885 115.526 87.127L115.528 86.9115C115.554 82.4739 115.395 73.1414 115.395 73.1414L108.18 73.9352Z" fill="#1890FF"/>
<path d="M109.005 57.8526C110.835 58.4257 113.857 56.8097 113.857 56.8097C113.857 56.8097 112.316 55.6225 112.404 53.0103L110.988 54.1417L110.027 54.9098C110.027 54.9098 110.03 55.363 110.136 56.1567C110.164 56.3655 110.214 56.6915 110.056 56.8589C109.443 57.5074 109.005 57.8526 109.005 57.8526Z" fill="#FFBB96"/>
<path d="M109.467 54.867C109.467 54.867 112.491 55.3654 112.775 53.493C113.059 51.6208 113.641 50.4241 111.722 50.0269C109.803 49.6297 109.318 50.2876 109.07 50.8898C108.822 51.4919 108.688 54.6891 109.467 54.867Z" fill="#FFBB96"/>
<path d="M106.449 74.7168C106.504 74.762 106.568 74.7897 106.642 74.7897C107.33 74.7804 109.335 75.1593 111.031 74.9865C112.461 74.85 113.727 74.4302 115.086 73.8262C115.267 73.7457 115.682 73.5257 115.673 73.3259C115.667 73.1065 115.646 72.7892 115.618 72.3889C115.521 70.9974 115.354 68.6045 115.517 65.8435C115.547 65.3293 115.562 64.8196 115.564 64.3175C115.578 60.5752 114.83 57.2844 113.326 56.1705C113.197 56.0795 112.409 56.4617 111.684 56.8154C111.015 57.143 110.49 57.1775 109.858 57.0506L109.081 57.6061C108.311 58.3152 107.467 59.2792 107.1 60.7425C106.788 61.9882 106.605 64.2338 106.504 66.5613C106.459 67.6159 106.422 68.68 106.412 69.6887V69.7246C106.403 69.8245 106.403 69.9338 106.403 70.0337C106.367 72.6258 106.403 74.6803 106.449 74.7168Z" fill="#253E5F"/>
<path d="M118.635 73.1757C118.061 73.2529 117.448 73.1731 117.448 73.1731C117.448 73.1731 116.064 67.915 115.874 67.4312C115.685 66.9476 111.222 61.0925 111.222 61.0925L113.505 56.2567C113.505 56.2567 118.184 65.1317 118.64 66.3673C119.393 68.4085 119.434 72.8916 119.434 72.8916C119.434 72.8916 119.086 73.1152 118.635 73.1757ZM113.115 52.8224C112.951 53.1599 112.473 53.2098 112.517 52.8376C112.567 52.4138 112.567 51.8595 112.219 51.9626C111.872 52.0658 111.854 52.3417 111.712 52.1806C111.569 52.0197 111.566 51.3409 110.532 51.2932C109.497 51.2462 109.077 51.603 108.597 51.3932C108.309 51.2674 108.184 50.9585 108.13 50.7308C108.115 50.6662 108.162 50.5762 108.206 50.6265C108.247 50.674 108.35 50.6711 108.321 50.6157C108.139 50.2729 107.866 49.5245 108.56 48.967C109.49 48.2211 110.437 48.7094 110.974 48.7414C112.159 48.8126 112.924 48.8828 113.311 49.6548C113.631 50.295 113.576 51.8768 113.115 52.8224Z" fill="#253E5F"/>
<path d="M96.2395 54.7482L97.7679 54.2855C97.8759 54.2529 97.9901 54.3131 98.023 54.4202L99.0432 57.7336C99.0761 57.8406 99.0153 57.9538 98.9074 57.9865L97.3789 58.4492C97.271 58.4818 97.1568 58.4216 97.1238 58.3145L96.1037 55.0011C96.0707 54.8941 96.1315 54.7809 96.2395 54.7482Z" fill="#1890FF"/>
</g>
<defs>
<clipPath id="clip0_912_346">
<rect width="177" height="117" fill="white" transform="translate(0.760742)"/>
</clipPath>
</defs>
</svg>
