<svg width="20" height="20" viewBox="0 0 20 20" fill="none" xmlns="http://www.w3.org/2000/svg">
<g clip-path="url(#clip0_912_116)">
<path d="M10.0001 18.3333C5.39758 18.3333 1.66675 14.6025 1.66675 9.99999C1.66675 6.26832 4.11925 3.10999 7.50008 2.04832V3.81832C6.06752 4.40003 4.88158 5.46141 4.14513 6.82092C3.40868 8.18043 3.16748 9.75358 3.46279 11.2713C3.7581 12.789 4.57157 14.1569 5.76405 15.1411C6.95653 16.1253 8.45392 16.6645 10.0001 16.6667C11.3282 16.6666 12.6261 16.27 13.7275 15.5277C14.8288 14.7854 15.6834 13.7311 16.1817 12.5H17.9517C16.8901 15.8808 13.7317 18.3333 10.0001 18.3333ZM18.2917 10.8333H9.16675V1.70832C9.44091 1.68082 9.71925 1.66666 10.0001 1.66666C14.6026 1.66666 18.3334 5.39749 18.3334 9.99999C18.3334 10.2808 18.3192 10.5592 18.2917 10.8333ZM10.8334 3.38499V9.16666H16.6151C16.4296 7.698 15.7608 6.33277 14.7141 5.28602C13.6673 4.23927 12.3021 3.57048 10.8334 3.38499Z" fill="#1890FF"/>
</g>
<defs>
<clipPath id="clip0_912_116">
<rect width="20" height="20" fill="white"/>
</clipPath>
</defs>
</svg>
