<svg width="20" height="20" viewBox="0 0 20 20" fill="none" xmlns="http://www.w3.org/2000/svg">
<g clip-path="url(#clip0_912_68)">
<path d="M1.66675 18.3333C1.66675 16.5652 2.36913 14.8695 3.61937 13.6193C4.86961 12.369 6.5653 11.6667 8.33341 11.6667C10.1015 11.6667 11.7972 12.369 13.0475 13.6193C14.2977 14.8695 15.0001 16.5652 15.0001 18.3333H13.3334C13.3334 17.0072 12.8066 15.7355 11.8689 14.7978C10.9313 13.8601 9.6595 13.3333 8.33341 13.3333C7.00733 13.3333 5.73556 13.8601 4.79788 14.7978C3.8602 15.7355 3.33341 17.0072 3.33341 18.3333H1.66675ZM8.33341 10.8333C5.57091 10.8333 3.33341 8.59583 3.33341 5.83333C3.33341 3.07083 5.57091 0.833328 8.33341 0.833328C11.0959 0.833328 13.3334 3.07083 13.3334 5.83333C13.3334 8.59583 11.0959 10.8333 8.33341 10.8333ZM8.33341 9.16666C10.1751 9.16666 11.6667 7.67499 11.6667 5.83333C11.6667 3.99166 10.1751 2.49999 8.33341 2.49999C6.49175 2.49999 5.00008 3.99166 5.00008 5.83333C5.00008 7.67499 6.49175 9.16666 8.33341 9.16666ZM15.2367 12.2525C16.4079 12.7799 17.4017 13.6344 18.0989 14.7131C18.7961 15.7918 19.1669 17.0489 19.1667 18.3333H17.5001C17.5003 17.37 17.2222 16.4271 16.6993 15.618C16.1764 14.8089 15.431 14.168 14.5526 13.7725L15.2359 12.2525H15.2367ZM14.6634 2.84416C15.503 3.19024 16.2209 3.77794 16.7259 4.53269C17.231 5.28743 17.5004 6.1752 17.5001 7.08333C17.5004 8.22694 17.0732 9.32935 16.3022 10.174C15.5312 11.0187 14.4723 11.5446 13.3334 11.6483V9.97083C13.9509 9.88239 14.5237 9.59834 14.9678 9.16038C15.412 8.72241 15.704 8.1536 15.801 7.53744C15.8981 6.92128 15.7951 6.29024 15.5071 5.73696C15.2191 5.18367 14.7613 4.73728 14.2009 4.46333L14.6634 2.84416Z" fill="#929FAF"/>
</g>
<defs>
<clipPath id="clip0_912_68">
<rect width="20" height="20" fill="white"/>
</clipPath>
</defs>
</svg>
