<svg width="177" height="117" viewBox="0 0 177 117" fill="none" xmlns="http://www.w3.org/2000/svg">
<g clip-path="url(#clip0_912_312)">
<path d="M128.423 19.89H72.9633C69.8135 19.89 67.26 22.4218 67.26 25.545V37.635C67.26 40.7582 69.8135 43.29 72.9633 43.29H128.423C131.573 43.29 134.127 40.7582 134.127 37.635V25.545C134.127 22.4218 131.573 19.89 128.423 19.89Z" fill="white" stroke="#F0F0F0" stroke-width="2"/>
<path d="M82.9935 22.035H75.5201C72.2616 22.035 69.6201 24.6541 69.6201 27.885V35.295C69.6201 38.5259 72.2616 41.145 75.5201 41.145H82.9935C86.2519 41.145 88.8935 38.5259 88.8935 35.295V27.885C88.8935 24.6541 86.2519 22.035 82.9935 22.035Z" fill="#FFE58F"/>
<path fill-rule="evenodd" clip-rule="evenodd" d="M83.6359 35.5982V36.237C83.6359 36.5898 83.3509 36.8761 82.9999 36.8761H75.3692C75.0182 36.8761 74.7334 36.5898 74.7334 36.237V35.5879C74.7334 33.6547 76.9323 32.3985 79.1846 32.3985C81.437 32.3985 83.6359 33.6552 83.6359 35.5879M80.7811 26.7858C81.663 27.66 81.663 29.0774 80.7811 29.9518C79.8994 30.8262 78.4699 30.8262 77.588 29.9518C76.7062 29.0774 76.7062 27.66 77.588 26.7858C78.4699 25.9114 79.8994 25.9114 80.7811 26.7858Z" fill="white"/>
<path d="M125.768 25.155H92.1383C91.5409 25.155 91.0566 25.6352 91.0566 26.2275C91.0566 26.8198 91.5409 27.3 92.1383 27.3H125.768C126.366 27.3 126.85 26.8198 126.85 26.2275C126.85 25.6352 126.366 25.155 125.768 25.155Z" fill="#F0F0F0"/>
<path d="M125.768 30.42H92.1383C91.5409 30.42 91.0566 30.9002 91.0566 31.4925C91.0566 32.0848 91.5409 32.565 92.1383 32.565H125.768C126.366 32.565 126.85 32.0848 126.85 31.4925C126.85 30.9002 126.366 30.42 125.768 30.42Z" fill="#F0F0F0"/>
<path d="M125.768 35.685H92.1383C91.5409 35.685 91.0566 36.1652 91.0566 36.7575C91.0566 37.3498 91.5409 37.83 92.1383 37.83H125.768C126.366 37.83 126.85 37.3498 126.85 36.7575C126.85 36.1652 126.366 35.685 125.768 35.685Z" fill="#F0F0F0"/>
<path d="M128.423 73.7016H72.9633C69.8087 73.7016 67.2515 76.2372 67.2515 79.365V91.455C67.2515 94.5828 69.8087 97.1184 72.9633 97.1184H128.423C131.578 97.1184 134.135 94.5828 134.135 91.455V79.365C134.135 76.2372 131.578 73.7016 128.423 73.7016Z" fill="white" stroke="#F0F0F0" stroke-width="1.914"/>
<path d="M82.9935 75.855H75.5201C72.2616 75.855 69.6201 78.4741 69.6201 81.705V89.115C69.6201 92.3459 72.2616 94.965 75.5201 94.965H82.9935C86.2519 94.965 88.8935 92.3459 88.8935 89.115V81.705C88.8935 78.4741 86.2519 75.855 82.9935 75.855Z" fill="#FFE58F"/>
<path fill-rule="evenodd" clip-rule="evenodd" d="M83.6359 89.4182V90.057C83.6359 90.4098 83.3509 90.6961 82.9999 90.6961H75.3692C75.0182 90.6961 74.7334 90.4098 74.7334 90.057V89.4079C74.7334 87.4747 76.9323 86.2185 79.1846 86.2185C81.437 86.2185 83.6359 87.4752 83.6359 89.4079M80.7811 80.6058C81.663 81.48 81.663 82.8974 80.7811 83.7718C79.8994 84.6462 78.4699 84.6462 77.588 83.7718C76.7062 82.8974 76.7062 81.48 77.588 80.6058C78.4699 79.7314 79.8994 79.7314 80.7811 80.6058Z" fill="white"/>
<path d="M125.768 78.975H92.1383C91.5409 78.975 91.0566 79.4552 91.0566 80.0475C91.0566 80.6398 91.5409 81.12 92.1383 81.12H125.768C126.366 81.12 126.85 80.6398 126.85 80.0475C126.85 79.4552 126.366 78.975 125.768 78.975Z" fill="#F0F0F0"/>
<path d="M125.768 84.24H92.1383C91.5409 84.24 91.0566 84.7202 91.0566 85.3125C91.0566 85.9048 91.5409 86.385 92.1383 86.385H125.768C126.366 86.385 126.85 85.9048 126.85 85.3125C126.85 84.7202 126.366 84.24 125.768 84.24Z" fill="#F0F0F0"/>
<path d="M125.768 89.505H92.1383C91.5409 89.505 91.0566 89.9852 91.0566 90.5775C91.0566 91.1698 91.5409 91.65 92.1383 91.65H125.768C126.366 91.65 126.85 91.1698 126.85 90.5775C126.85 89.9852 126.366 89.505 125.768 89.505Z" fill="#F0F0F0"/>
<path d="M144.943 46.8H89.4834C86.3335 46.8 83.78 49.3318 83.78 52.455V64.545C83.78 67.6682 86.3335 70.2 89.4834 70.2H144.943C148.093 70.2 150.647 67.6682 150.647 64.545V52.455C150.647 49.3318 148.093 46.8 144.943 46.8Z" fill="white" stroke="#F0F0F0" stroke-width="2"/>
<path d="M99.5132 48.945H92.0399C88.7814 48.945 86.1399 51.5641 86.1399 54.795V62.205C86.1399 65.4359 88.7814 68.055 92.0399 68.055H99.5132C102.772 68.055 105.413 65.4359 105.413 62.205V54.795C105.413 51.5641 102.772 48.945 99.5132 48.945Z" fill="#FFE58F"/>
<path fill-rule="evenodd" clip-rule="evenodd" d="M100.156 62.5082V63.1471C100.156 63.4998 99.871 63.7861 99.5199 63.7861H91.8892C91.5382 63.7861 91.2534 63.4998 91.2534 63.1471V62.4979C91.2534 60.5647 93.4523 59.3085 95.7046 59.3085C97.957 59.3085 100.156 60.5653 100.156 62.4979M97.3011 53.6958C98.183 54.57 98.183 55.9874 97.3011 56.8618C96.4195 57.7362 94.9899 57.7362 94.108 56.8618C93.2262 55.9874 93.2262 54.57 94.108 53.6958C94.9899 52.8214 96.4195 52.8214 97.3011 53.6958Z" fill="white"/>
<path d="M142.288 52.065H108.658C108.061 52.065 107.577 52.5452 107.577 53.1375C107.577 53.7298 108.061 54.21 108.658 54.21H142.288C142.886 54.21 143.37 53.7298 143.37 53.1375C143.37 52.5452 142.886 52.065 142.288 52.065Z" fill="#F0F0F0"/>
<path d="M142.288 57.33H108.658C108.061 57.33 107.577 57.8102 107.577 58.4025C107.577 58.9948 108.061 59.475 108.658 59.475H142.288C142.886 59.475 143.37 58.9948 143.37 58.4025C143.37 57.8102 142.886 57.33 142.288 57.33Z" fill="#F0F0F0"/>
<path d="M142.288 62.595H108.658C108.061 62.595 107.577 63.0752 107.577 63.6675C107.577 64.2598 108.061 64.74 108.658 64.74H142.288C142.886 64.74 143.37 64.2598 143.37 63.6675C143.37 63.0752 142.886 62.595 142.288 62.595Z" fill="#F0F0F0"/>
<path fill-rule="evenodd" clip-rule="evenodd" d="M69.5653 66.0748C65.4502 66.0748 62.1138 62.72 62.1138 58.5825C62.1138 54.4448 65.4502 51.09 69.5653 51.09C73.6803 51.09 77.0168 54.4448 77.0168 58.5825C77.0168 62.72 73.6803 66.0748 69.5653 66.0748Z" fill="#FFE58F"/>
<path d="M72.189 57.3337L69.0411 60.6635L67.1514 58.6659" stroke="white" stroke-width="6.288" stroke-linecap="round" stroke-linejoin="round"/>
<path d="M59.094 41.0348C58.9774 41.9281 58.6653 43.0049 58.1601 43.3705C57.5872 43.7857 57.4102 44.2264 57.4102 44.2264L56.8278 44.0484L56.1318 43.8356C56.1318 43.8356 56.1307 43.7652 56.135 43.6478C56.1385 43.5316 56.1494 43.3688 56.1724 43.1855C56.1724 43.1855 56.3051 42.9025 56.1191 42.6276C55.9332 42.3532 55.8477 41.8823 55.9786 41.5533C56.1088 41.2253 56.136 40.4826 56.2591 40.4767C56.5576 40.4602 56.3533 41.5184 56.5181 41.6678C56.6662 41.8039 56.793 41.7165 56.8157 41.6978C56.8173 41.6967 56.8188 41.6954 56.8204 41.6941C57.5431 41.1587 58.0779 39.0435 58.5693 39.2003C58.7526 39.2586 59.1444 40.6546 59.094 41.0348ZM29.7071 63.015C29.7071 63.015 30.3243 64.0739 30.0479 64.6846C29.7724 65.2958 28.8156 66.1105 28.5688 66.4301C28.323 66.7491 27.4885 67.5921 27.1522 67.0496C26.8163 66.5085 27.4097 65.0692 27.8211 64.5267C28.2321 63.9832 28.2711 63.0505 28.2711 63.0505L29.7071 63.015Z" fill="#FFBB96"/>
<path d="M30.1021 64.5081C30.1021 64.5081 30.0551 65.675 29.9993 65.9864C29.943 66.2986 29.8876 66.2031 29.6724 65.9937C29.4573 65.784 29.4596 65.1735 29.379 65.1333C29.2983 65.0931 30.1021 64.5081 30.1021 64.5081Z" fill="#FFBB96"/>
<path d="M40.8972 40.9075C40.8972 40.9075 48.0959 48.6012 50.337 49.8069L55.9833 43.1985C55.9833 43.1985 57.0431 43.2723 57.7067 44.1585C57.7067 44.1585 55.516 53.4785 51.5191 54.7694C47.5223 56.0602 39.3738 46.9854 39.3738 46.9854L40.8972 40.9075ZM47.609 97.305H40.2167C39.8615 96.8898 39.9923 95.3571 40.0456 94.856C40.0568 94.755 40.0643 94.6969 40.0643 94.6969C40.0643 94.6969 42.5885 92.764 42.9352 94.2441C42.9456 94.2905 42.9586 94.3361 42.9726 94.381C43.4092 95.7651 45.369 96.3941 46.4996 96.5695C47.2361 96.6831 47.5081 97.0492 47.609 97.305Z" fill="#253E5F"/>
<path d="M42.6321 97.305H35.2398C34.8846 96.8899 35.0156 95.3572 35.0687 94.856C35.0799 94.755 35.0873 94.6969 35.0873 94.6969C35.0873 94.6969 37.6118 92.764 37.9585 94.2441C37.9687 94.2905 37.9817 94.3361 37.9959 94.381C38.4323 95.7651 40.392 96.3942 41.5229 96.5695C42.2592 96.6832 42.5312 97.0492 42.6321 97.305Z" fill="#253E5F"/>
<path d="M45.5897 64.3486C45.5897 64.3486 45.2363 68.1414 44.8209 72.6999C44.2563 78.8925 43.5772 86.4995 43.5099 87.9403C43.3935 90.4428 42.9282 94.4451 42.9282 94.4451C42.9282 94.4451 41.8231 95.3961 39.6114 94.9952C39.6114 94.9952 37.6402 89.2811 37.0776 83.2352L37.0516 82.9366C36.5275 76.7824 35.7139 63.8225 35.7139 63.8225L45.5897 64.3486Z" fill="#FFE58F"/>
<path d="M43.585 64.6082C43.585 64.6082 42.9185 68.3631 42.1269 72.8768C41.0511 79.0087 39.7445 86.5418 39.5594 87.9723C39.2385 90.4566 38.441 94.4137 38.441 94.4137C38.441 94.4137 37.2391 95.2959 35.02 94.7673C35.02 94.7673 33.4751 88.9637 33.3914 82.9121L33.3892 82.6131C33.3534 76.4558 33.5733 63.5066 33.5733 63.5066L43.585 64.6082Z" fill="#FFE58F"/>
<path d="M42.4399 42.293C39.8998 43.0884 35.708 40.8461 35.708 40.8461C35.708 40.8461 37.8462 39.1987 37.7238 35.5744L39.6878 37.1442L41.0221 38.2099C41.0221 38.2099 41.0168 38.8385 40.8707 39.9401C40.8322 40.2297 40.7618 40.6823 40.9806 40.9141C41.8312 41.8142 42.4399 42.293 42.4399 42.293Z" fill="#FFBB96"/>
<path d="M41.7987 38.1504C41.7987 38.1504 37.6024 38.842 37.2083 36.2441C36.8144 33.6461 36.0078 31.9857 38.6701 31.4346C41.3324 30.8833 42.0054 31.7965 42.3492 32.6319C42.6931 33.4675 42.8796 37.9037 41.7987 38.1504Z" fill="#FFBB96"/>
<path d="M45.9863 65.6926C45.9098 65.7554 45.8209 65.7938 45.7188 65.7938C44.7646 65.7807 41.9825 66.3066 39.629 66.0668C37.6447 65.8774 35.8874 65.295 34.0016 64.4569C33.751 64.3453 33.175 64.04 33.1872 63.7627C33.1961 63.4583 33.2259 63.018 33.2647 62.4624C33.3984 60.5317 33.6305 57.2116 33.4035 53.3807C33.3633 52.6755 33.3416 51.9694 33.3384 51.2632C33.3192 46.0707 34.357 41.5046 36.4442 39.9592C36.6228 39.8328 37.7168 40.363 38.7222 40.8541C39.6508 41.3084 40.3791 41.3564 41.257 41.1801L42.3344 41.9511C43.4031 42.9347 44.5736 44.2726 45.083 46.3027C45.5156 48.0312 45.7699 51.1471 45.9098 54.3765C45.9731 55.8398 46.024 57.3163 46.0372 58.7161V58.7656C46.0496 58.9044 46.0496 59.0561 46.0496 59.1948C46.1005 62.7912 46.0496 65.6421 45.9863 65.6926Z" fill="#253E5F"/>
<path d="M29.0782 63.5542C29.8747 63.6615 30.7245 63.5507 30.7245 63.5507C30.7245 63.5507 32.6453 56.2548 32.9083 55.5838C33.1714 54.9126 39.3635 46.7885 39.3635 46.7885L36.1952 40.0787C36.1952 40.0787 29.703 52.393 29.0709 54.1072C28.0264 56.9398 27.969 63.1601 27.969 63.1601C27.969 63.1601 28.4522 63.4704 29.0782 63.5542ZM36.7364 35.3135C36.9647 35.7817 37.6275 35.8511 37.5663 35.3346C37.4969 34.7467 37.4977 33.9776 37.9797 34.1205C38.4618 34.2636 38.4863 34.6464 38.6842 34.4232C38.8822 34.1999 38.8858 33.258 40.321 33.1917C41.7565 33.1264 42.3396 33.6217 43.0063 33.3304C43.4059 33.156 43.5788 32.7274 43.6534 32.4113C43.6746 32.3218 43.6087 32.1968 43.5485 32.2666C43.4915 32.3328 43.3481 32.3285 43.389 32.2516C43.6418 31.776 44.0199 30.7377 43.0565 29.9643C41.7671 28.929 40.453 29.6067 39.7072 29.6511C38.0633 29.7496 37.0017 29.8473 36.4652 30.9182C36.0205 31.8066 36.0966 34.0014 36.7364 35.3135Z" fill="#253E5F"/>
<path fill-rule="evenodd" clip-rule="evenodd" d="M148.003 30.9295H147.494C147.436 30.9295 147.379 30.9063 147.338 30.865C147.296 30.8238 147.273 30.7679 147.273 30.7096V30.2059C147.273 30.084 147.373 29.9859 147.494 29.9859H148.003C148.124 29.9859 148.224 30.085 148.224 30.2059V30.7096C148.224 30.7385 148.219 30.7671 148.208 30.7938C148.197 30.8206 148.18 30.8448 148.16 30.8653C148.139 30.8857 148.114 30.9019 148.088 30.913C148.061 30.924 148.032 30.9296 148.003 30.9295ZM146.241 30.9295H145.733C145.611 30.9295 145.511 30.8305 145.511 30.7096V30.2059C145.511 30.084 145.611 29.9859 145.733 29.9859H146.241C146.363 29.9859 146.463 30.085 146.463 30.2059V30.7096C146.463 30.8305 146.363 30.9295 146.241 30.9295ZM144.478 30.9295H143.97C143.848 30.9295 143.748 30.8305 143.748 30.7096V30.2059C143.748 30.084 143.848 29.9859 143.97 29.9859H144.478C144.6 29.9859 144.7 30.085 144.7 30.2059V30.7096C144.7 30.7385 144.694 30.7671 144.683 30.7938C144.672 30.8205 144.656 30.8448 144.635 30.8652C144.614 30.8857 144.59 30.9019 144.563 30.9129C144.536 30.9239 144.507 30.9296 144.478 30.9295ZM142.716 30.9295H142.208C142.149 30.9293 142.093 30.9061 142.051 30.8649C142.01 30.8237 141.986 30.7679 141.986 30.7096V30.2059C141.986 30.1476 142.01 30.0917 142.051 30.0505C142.093 30.0092 142.149 29.986 142.208 29.9859H142.716C142.839 29.9859 142.939 30.085 142.939 30.2059V30.7096C142.938 30.7679 142.915 30.8236 142.873 30.8648C142.831 30.9059 142.775 30.9292 142.716 30.9295ZM140.954 30.9295H140.446C140.387 30.9295 140.331 30.9064 140.289 30.8652C140.247 30.824 140.224 30.768 140.223 30.7096V30.2059C140.223 30.1769 140.229 30.1483 140.24 30.1216C140.252 30.0948 140.268 30.0706 140.289 30.0501C140.31 30.0297 140.334 30.0135 140.361 30.0025C140.388 29.9915 140.417 29.9859 140.446 29.9859H140.954C141.076 29.9859 141.176 30.085 141.176 30.2059V30.7096C141.176 30.8305 141.076 30.9295 140.954 30.9295ZM146.176 29.0248H145.668C145.546 29.0248 145.446 28.9255 145.446 28.8048V28.3C145.446 28.1791 145.546 28.08 145.668 28.08H146.176C146.299 28.08 146.398 28.1791 146.398 28.3V28.8038C146.398 28.8328 146.393 28.8615 146.381 28.8883C146.37 28.9151 146.354 28.9395 146.333 28.9601C146.313 28.9806 146.288 28.9969 146.261 29.008C146.234 29.0191 146.206 29.0248 146.176 29.0248ZM144.414 29.0248H143.906C143.784 29.0248 143.685 28.9255 143.685 28.8048V28.3C143.685 28.1791 143.784 28.08 143.906 28.08H144.414C144.536 28.08 144.636 28.1791 144.636 28.3V28.8038C144.636 28.8328 144.631 28.8615 144.62 28.8883C144.609 28.9152 144.592 28.9395 144.572 28.9601C144.551 28.9806 144.526 28.9969 144.5 29.008C144.473 29.0191 144.444 29.0248 144.414 29.0248ZM142.653 29.0248H142.144C142.086 29.0247 142.029 29.0016 141.987 28.9604C141.946 28.9191 141.922 28.8632 141.922 28.8048V28.3C141.922 28.1791 142.022 28.08 142.144 28.08H142.653C142.774 28.08 142.874 28.1791 142.874 28.3V28.8038C142.874 28.9255 142.774 29.0248 142.653 29.0248ZM144.478 32.9759H143.97C143.848 32.9759 143.748 32.8768 143.748 32.7559V32.2522C143.748 32.1303 143.848 32.0323 143.97 32.0323H144.478C144.6 32.0323 144.7 32.1313 144.7 32.2522V32.7559C144.7 32.7848 144.694 32.8134 144.683 32.8401C144.672 32.8668 144.656 32.8911 144.635 32.9115C144.614 32.932 144.59 32.9482 144.563 32.9592C144.536 32.9703 144.507 32.9759 144.478 32.9759ZM142.716 32.9759H142.208C142.149 32.9757 142.093 32.9524 142.051 32.9112C142.01 32.87 141.986 32.8142 141.986 32.7559V32.2522C141.986 32.1939 142.01 32.138 142.051 32.0968C142.093 32.0556 142.149 32.0324 142.208 32.0323H142.716C142.839 32.0323 142.939 32.1313 142.939 32.2522V32.7559C142.938 32.8142 142.915 32.87 142.873 32.9111C142.831 32.9523 142.775 32.9755 142.716 32.9759ZM148.003 85.7245H147.494C147.436 85.7245 147.379 85.7013 147.338 85.66C147.296 85.6188 147.273 85.5629 147.273 85.5046V85.0009C147.273 84.879 147.373 84.7809 147.494 84.7809H148.003C148.124 84.7809 148.224 84.88 148.224 85.0009V85.5046C148.224 85.5335 148.219 85.5621 148.208 85.5888C148.197 85.6156 148.18 85.6398 148.16 85.6603C148.139 85.6807 148.114 85.6969 148.088 85.708C148.061 85.719 148.032 85.7246 148.003 85.7245ZM146.241 85.7245H145.733C145.611 85.7245 145.511 85.6255 145.511 85.5046V85.0009C145.511 84.879 145.611 84.7809 145.733 84.7809H146.241C146.363 84.7809 146.463 84.88 146.463 85.0009V85.5046C146.463 85.6255 146.363 85.7245 146.241 85.7245ZM144.478 85.7245H143.97C143.848 85.7245 143.748 85.6255 143.748 85.5046V85.0009C143.748 84.879 143.848 84.7809 143.97 84.7809H144.478C144.6 84.7809 144.7 84.88 144.7 85.0009V85.5046C144.7 85.5335 144.694 85.5621 144.683 85.5888C144.672 85.6155 144.656 85.6398 144.635 85.6602C144.614 85.6807 144.59 85.6969 144.563 85.7079C144.536 85.7189 144.507 85.7246 144.478 85.7245ZM142.716 85.7245H142.208C142.149 85.7243 142.093 85.7011 142.051 85.6599C142.01 85.6187 141.986 85.5629 141.986 85.5046V85.0009C141.986 84.9426 142.01 84.8867 142.051 84.8455C142.093 84.8042 142.149 84.781 142.208 84.7809H142.716C142.839 84.7809 142.939 84.88 142.939 85.0009V85.5046C142.938 85.5629 142.915 85.6186 142.873 85.6598C142.831 85.7009 142.775 85.7242 142.716 85.7245ZM140.954 85.7245H140.446C140.387 85.7245 140.331 85.7014 140.289 85.6602C140.247 85.619 140.224 85.563 140.223 85.5046V85.0009C140.223 84.9719 140.229 84.9433 140.24 84.9166C140.252 84.8898 140.268 84.8656 140.289 84.8451C140.31 84.8247 140.334 84.8085 140.361 84.7975C140.388 84.7865 140.417 84.7809 140.446 84.7809H140.954C141.076 84.7809 141.176 84.88 141.176 85.0009V85.5046C141.176 85.6255 141.076 85.7245 140.954 85.7245ZM146.176 83.8198H145.668C145.546 83.8198 145.446 83.7205 145.446 83.5998V83.095C145.446 82.9741 145.546 82.875 145.668 82.875H146.176C146.299 82.875 146.398 82.9741 146.398 83.095V83.5988C146.398 83.6278 146.393 83.6565 146.381 83.6833C146.37 83.7101 146.354 83.7345 146.333 83.7551C146.313 83.7756 146.288 83.7919 146.261 83.803C146.234 83.8141 146.206 83.8198 146.176 83.8198ZM144.414 83.8198H143.906C143.784 83.8198 143.685 83.7205 143.685 83.5998V83.095C143.685 82.9741 143.784 82.875 143.906 82.875H144.414C144.536 82.875 144.636 82.9741 144.636 83.095V83.5988C144.636 83.6278 144.631 83.6565 144.62 83.6833C144.609 83.7102 144.592 83.7345 144.572 83.7551C144.551 83.7756 144.526 83.7919 144.5 83.803C144.473 83.8141 144.444 83.8198 144.414 83.8198ZM142.653 83.8198H142.144C142.086 83.8197 142.029 83.7966 141.987 83.7554C141.946 83.7141 141.922 83.6582 141.922 83.5998V83.095C141.922 82.9741 142.022 82.875 142.144 82.875H142.653C142.774 82.875 142.874 82.9741 142.874 83.095V83.5988C142.874 83.7205 142.774 83.8198 142.653 83.8198ZM144.478 87.7709H143.97C143.848 87.7709 143.748 87.6718 143.748 87.5509V87.0472C143.748 86.9254 143.848 86.8273 143.97 86.8273H144.478C144.6 86.8273 144.7 86.9263 144.7 87.0472V87.5509C144.7 87.5798 144.694 87.6084 144.683 87.6351C144.672 87.6618 144.656 87.6861 144.635 87.7065C144.614 87.727 144.59 87.7432 144.563 87.7542C144.536 87.7653 144.507 87.7709 144.478 87.7709ZM142.716 87.7709H142.208C142.149 87.7707 142.093 87.7474 142.051 87.7062C142.01 87.665 141.986 87.6092 141.986 87.5509V87.0472C141.986 86.9889 142.01 86.933 142.051 86.8918C142.093 86.8506 142.149 86.8274 142.208 86.8273H142.716C142.839 86.8273 142.939 86.9263 142.939 87.0472V87.5509C142.938 87.6092 142.915 87.665 142.873 87.7061C142.831 87.7473 142.775 87.7705 142.716 87.7709Z" fill="#F0F0F0"/>
<path d="M63.8277 43.29H63.8091C63.6991 44.7804 62.54 44.8034 62.54 44.8034C62.54 44.8034 63.8183 44.8272 63.8183 46.5492C63.8183 44.8272 65.0966 44.8034 65.0966 44.8034C65.0966 44.8034 63.9377 44.7804 63.8277 43.29ZM55.377 58.5H55.3469C55.1691 60.9075 53.2966 60.9445 53.2966 60.9445C53.2966 60.9445 55.3616 60.9831 55.3616 63.765C55.3616 60.9831 57.4266 60.9445 57.4266 60.9445C57.4266 60.9445 55.5546 60.9075 55.377 58.5ZM80.1511 66.3279H80.1324C80.0224 67.8183 78.8633 67.8413 78.8633 67.8413C78.8633 67.8413 80.1416 67.8651 80.1416 69.5871C80.1416 67.8651 81.42 67.8413 81.42 67.8413C81.42 67.8413 80.261 67.8183 80.1511 66.3279ZM80.1511 46.8H80.1324C80.0224 48.2904 78.8633 48.3134 78.8633 48.3134C78.8633 48.3134 80.1416 48.3372 80.1416 50.0592C80.1416 48.3372 81.42 48.3134 81.42 48.3134C81.42 48.3134 80.261 48.2904 80.1511 46.8ZM62.6271 69.03H62.606C62.481 70.7242 61.1633 70.7503 61.1633 70.7503C61.1633 70.7503 62.6163 70.7774 62.6163 72.735C62.6163 70.7774 64.0694 70.7503 64.0694 70.7503C64.0694 70.7503 62.7522 70.7242 62.6271 69.03Z" fill="#F0F0F0"/>
</g>
<defs>
<clipPath id="clip0_912_312">
<rect width="177" height="117" fill="white"/>
</clipPath>
</defs>
</svg>
