<svg width="48" height="48" viewBox="0 0 48 48" fill="none" xmlns="http://www.w3.org/2000/svg">
<rect width="48" height="48" rx="6" fill="#FADB14"/>
<g clip-path="url(#clip0_912_162)">
<path d="M10.6667 37.3333C10.6667 34.5044 11.7906 31.7913 13.7909 29.7909C15.7913 27.7905 18.5044 26.6667 21.3334 26.6667C24.1624 26.6667 26.8755 27.7905 28.8759 29.7909C30.8763 31.7913 32.0001 34.5044 32.0001 37.3333H10.6667ZM21.3334 25.3333C16.9134 25.3333 13.3334 21.7533 13.3334 17.3333C13.3334 12.9133 16.9134 9.33334 21.3334 9.33334C25.7534 9.33334 29.3334 12.9133 29.3334 17.3333C29.3334 21.7533 25.7534 25.3333 21.3334 25.3333ZM31.1507 28.3107C33.1903 28.8349 35.0124 29.9891 36.3578 31.6091C37.7032 33.2291 38.5033 35.2322 38.6441 37.3333H34.6667C34.6667 33.8533 33.3334 30.6853 31.1507 28.3107ZM28.4534 25.276C29.5707 24.2766 30.4643 23.0525 31.0755 21.6837C31.6867 20.3149 32.0018 18.8324 32.0001 17.3333C32.0029 15.5113 31.5369 13.7192 30.6467 12.1293C32.1569 12.4328 33.5154 13.2498 34.4913 14.4416C35.4673 15.6334 36.0004 17.1263 36.0001 18.6667C36.0004 19.6166 35.7977 20.5557 35.4056 21.4209C35.0134 22.2861 34.4408 23.0575 33.7262 23.6834C33.0115 24.3093 32.1714 24.7752 31.262 25.0498C30.3526 25.3245 29.395 25.4016 28.4534 25.276Z" fill="white"/>
</g>
<defs>
<clipPath id="clip0_912_162">
<rect width="32" height="32" fill="white" transform="translate(8 8)"/>
</clipPath>
</defs>
</svg>
