<svg width="48" height="48" viewBox="0 0 48 48" fill="none" xmlns="http://www.w3.org/2000/svg">
<rect width="48" height="48" rx="6" fill="#52C41A"/>
<g clip-path="url(#clip0_912_156)">
<path d="M24.0001 22.6667C25.7682 22.6667 27.4639 23.369 28.7141 24.6193C29.9644 25.8695 30.6667 27.5652 30.6667 29.3333V37.3333H17.3334V29.3333C17.3334 27.5652 18.0358 25.8695 19.286 24.6193C20.5363 23.369 22.232 22.6667 24.0001 22.6667ZM15.0507 26.6747C14.8386 27.3904 14.7132 28.129 14.6774 28.8747L14.6667 29.3333V37.3333H10.6667V31.3333C10.6665 30.1834 11.0908 29.0739 11.8583 28.2176C12.6257 27.3613 13.6823 26.8185 14.8254 26.6933L15.0507 26.6747ZM32.9494 26.6747C34.136 26.747 35.2502 27.2693 36.0649 28.135C36.8795 29.0007 37.3332 30.1446 37.3334 31.3333V37.3333H33.3334V29.3333C33.3334 28.4093 33.2001 27.5173 32.9494 26.6747ZM15.3334 18.6667C16.2175 18.6667 17.0653 19.0178 17.6904 19.643C18.3156 20.2681 18.6667 21.1159 18.6667 22C18.6667 22.884 18.3156 23.7319 17.6904 24.357C17.0653 24.9821 16.2175 25.3333 15.3334 25.3333C14.4494 25.3333 13.6015 24.9821 12.9764 24.357C12.3513 23.7319 12.0001 22.884 12.0001 22C12.0001 21.1159 12.3513 20.2681 12.9764 19.643C13.6015 19.0178 14.4494 18.6667 15.3334 18.6667ZM32.6667 18.6667C33.5508 18.6667 34.3986 19.0178 35.0238 19.643C35.6489 20.2681 36.0001 21.1159 36.0001 22C36.0001 22.884 35.6489 23.7319 35.0238 24.357C34.3986 24.9821 33.5508 25.3333 32.6667 25.3333C31.7827 25.3333 30.9348 24.9821 30.3097 24.357C29.6846 23.7319 29.3334 22.884 29.3334 22C29.3334 21.1159 29.6846 20.2681 30.3097 19.643C30.9348 19.0178 31.7827 18.6667 32.6667 18.6667ZM24.0001 10.6667C25.4146 10.6667 26.7711 11.2286 27.7713 12.2288C28.7715 13.2289 29.3334 14.5855 29.3334 16C29.3334 17.4145 28.7715 18.771 27.7713 19.7712C26.7711 20.7714 25.4146 21.3333 24.0001 21.3333C22.5856 21.3333 21.229 20.7714 20.2288 19.7712C19.2287 18.771 18.6667 17.4145 18.6667 16C18.6667 14.5855 19.2287 13.2289 20.2288 12.2288C21.229 11.2286 22.5856 10.6667 24.0001 10.6667Z" fill="white"/>
</g>
<defs>
<clipPath id="clip0_912_156">
<rect width="32" height="32" fill="white" transform="translate(8 8)"/>
</clipPath>
</defs>
</svg>
