<svg width="32" height="32" viewBox="0 0 32 32" fill="none" xmlns="http://www.w3.org/2000/svg">
<g clip-path="url(#clip0_912_157)">
<path d="M16.0001 14.6667C17.7682 14.6667 19.4639 15.369 20.7141 16.6193C21.9644 17.8695 22.6667 19.5652 22.6667 21.3333V29.3333H9.33341V21.3333C9.33341 19.5652 10.0358 17.8695 11.286 16.6193C12.5363 15.369 14.232 14.6667 16.0001 14.6667ZM7.05075 18.6747C6.83856 19.3904 6.71321 20.129 6.67741 20.8747L6.66675 21.3333V29.3333H2.66675V23.3333C2.66649 22.1834 3.09079 21.0739 3.85826 20.2176C4.62574 19.3613 5.68235 18.8185 6.82541 18.6933L7.05075 18.6747ZM24.9494 18.6747C26.136 18.747 27.2502 19.2693 28.0649 20.135C28.8795 21.0007 29.3332 22.1446 29.3334 23.3333V29.3333H25.3334V21.3333C25.3334 20.4093 25.2001 19.5173 24.9494 18.6747ZM7.33341 10.6667C8.21747 10.6667 9.06532 11.0178 9.69044 11.643C10.3156 12.2681 10.6667 13.1159 10.6667 14C10.6667 14.884 10.3156 15.7319 9.69044 16.357C9.06532 16.9821 8.21747 17.3333 7.33341 17.3333C6.44936 17.3333 5.60151 16.9821 4.97639 16.357C4.35127 15.7319 4.00008 14.884 4.00008 14C4.00008 13.1159 4.35127 12.2681 4.97639 11.643C5.60151 11.0178 6.44936 10.6667 7.33341 10.6667ZM24.6667 10.6667C25.5508 10.6667 26.3986 11.0178 27.0238 11.643C27.6489 12.2681 28.0001 13.1159 28.0001 14C28.0001 14.884 27.6489 15.7319 27.0238 16.357C26.3986 16.9821 25.5508 17.3333 24.6667 17.3333C23.7827 17.3333 22.9348 16.9821 22.3097 16.357C21.6846 15.7319 21.3334 14.884 21.3334 14C21.3334 13.1159 21.6846 12.2681 22.3097 11.643C22.9348 11.0178 23.7827 10.6667 24.6667 10.6667ZM16.0001 2.66666C17.4146 2.66666 18.7711 3.22856 19.7713 4.22875C20.7715 5.22895 21.3334 6.5855 21.3334 7.99999C21.3334 9.41448 20.7715 10.771 19.7713 11.7712C18.7711 12.7714 17.4146 13.3333 16.0001 13.3333C14.5856 13.3333 13.229 12.7714 12.2288 11.7712C11.2287 10.771 10.6667 9.41448 10.6667 7.99999C10.6667 6.5855 11.2287 5.22895 12.2288 4.22875C13.229 3.22856 14.5856 2.66666 16.0001 2.66666Z" fill="white"/>
</g>
<defs>
<clipPath id="clip0_912_157">
<rect width="32" height="32" fill="white"/>
</clipPath>
</defs>
</svg>
