<svg width="178" height="101" viewBox="0 0 178 101" fill="none" xmlns="http://www.w3.org/2000/svg">
<path d="M121.023 25.5382H42.2671C38.571 25.5382 35.5747 28.509 35.5747 32.1738V80.1871C35.5747 83.8519 38.571 86.8228 42.2671 86.8228H121.023C124.719 86.8228 127.715 83.8519 127.715 80.1871V32.1738C127.715 28.509 124.719 25.5382 121.023 25.5382Z" fill="white" stroke="#BBC3CD" stroke-width="2.959"/>
<path d="M42.8049 31.8515C43.554 31.8515 44.1612 31.2495 44.1612 30.5068C44.1612 29.7641 43.554 29.1621 42.8049 29.1621C42.0559 29.1621 41.4487 29.7641 41.4487 30.5068C41.4487 31.2495 42.0559 31.8515 42.8049 31.8515Z" fill="#BBC3CD"/>
<path d="M47.4905 31.8515C48.2395 31.8515 48.8467 31.2495 48.8467 30.5068C48.8467 29.7641 48.2395 29.1621 47.4905 29.1621C46.7415 29.1621 46.1343 29.7641 46.1343 30.5068C46.1343 31.2495 46.7415 31.8515 47.4905 31.8515Z" fill="#BBC3CD"/>
<path d="M52.176 31.8515C52.9251 31.8515 53.5323 31.2495 53.5323 30.5068C53.5323 29.7641 52.9251 29.1621 52.176 29.1621C51.427 29.1621 50.8198 29.7641 50.8198 30.5068C50.8198 31.2495 51.427 31.8515 52.176 31.8515Z" fill="#BBC3CD"/>
<path d="M145.866 53.8417C144.783 42.2296 125.3 42.4391 125.3 42.4391C125.3 42.4391 109.079 59.6353 105.27 59.4548C101.461 59.274 116.243 42.0658 116.243 42.0658C109.141 40.1277 89.1922 45.7299 89.1922 45.7299C89.1922 45.7299 86.3844 68.572 82.737 67.4671C79.0894 66.3623 86.2638 47.3663 86.2638 47.3663C78.9093 48.2401 70.9657 55.2016 70.9657 55.2016C60.4989 66.9631 76.2716 79.6831 76.2716 79.6831C76.2716 79.6831 75.1266 87.5785 68.6515 95.7437C68.6515 95.7437 67.2562 97.2169 65.6372 99.8516L67.5423 100.181C67.7804 99.7108 68.0389 99.2516 68.317 98.804C68.3186 98.8003 68.3193 98.7984 68.3227 98.7954C68.3278 98.7888 68.3302 98.7832 68.3351 98.7765C68.516 98.5074 68.7784 98.1233 69.1007 97.6588L69.1015 97.6568L69.1023 97.6551C69.8823 96.6243 70.4235 95.8582 70.7767 95.2993L70.7791 95.2936C73.1463 92.0461 76.4702 87.8579 78.3165 87.1783C78.3165 87.1783 78.1568 86.848 78.0599 86.2417C78.1423 86.5403 78.2256 86.8523 78.3165 87.1783C80.362 94.672 96.4708 98.6406 105.882 98.3596C115.294 98.0786 111.78 94.8541 107.609 89.8855C103.439 84.9169 92.9963 84.2356 90.252 82.0956C87.5075 79.9559 92.2173 79.1028 98.196 80.6092C104.172 82.1169 106.149 88.6459 115.773 91.2585C125.396 93.8711 136.056 76.9044 136.056 76.9044C128.934 77.8191 117.465 72.0303 117.404 69.6406C117.344 67.2491 135.246 70.5754 138.163 70.3646C141.083 70.1536 146.949 65.4538 145.866 53.8417Z" fill="white"/>
<path d="M45.9504 66.6294C48.5654 62.432 55.9076 66.1481 55.9076 66.1481C55.9076 66.1481 58.7882 75.6912 60.2657 76.3337C61.7433 76.9763 59.4096 67.6972 59.4096 67.6972C62.4684 68.2884 68.9631 74.1347 68.9631 74.1347C68.9631 74.1347 65.69 83.3134 67.2818 83.5756C68.8734 83.8377 69.762 75.3014 69.762 75.3014C72.3826 77.0053 74.0706 81.1257 74.0706 81.1257C75.803 87.5357 67.412 89.4108 67.412 89.4108C67.412 89.4108 66.3467 92.616 67.2498 96.9183C67.2498 96.9183 67.4987 97.7369 67.6118 99.0374L66.8275 98.8063C66.8264 98.5839 66.8157 98.3617 66.7955 98.1402C66.7955 98.1384 66.7957 98.1377 66.7949 98.1359C66.7943 98.1324 66.7945 98.1299 66.7937 98.1264C66.7762 97.9908 66.7498 97.7962 66.7158 97.5601L66.716 97.5591V97.5583C66.6161 97.0221 66.5565 96.6309 66.529 96.3532L66.5292 96.3507C66.2487 94.6784 65.7846 92.4712 65.2141 91.869C65.2141 91.869 65.3374 91.7736 65.4892 91.5619C65.4013 91.6598 65.3104 91.7623 65.2141 91.869C63.0163 94.3264 56.1595 92.8231 52.6469 90.9597C49.1342 89.0965 51.0783 88.5308 53.6015 87.4267C56.1249 86.3226 60.2109 88.0139 61.657 87.7153C63.103 87.4168 61.4807 86.2146 58.9294 85.6692C56.3788 85.1249 54.3901 87.2298 50.2479 86.4232C46.1057 85.6167 45.2882 77.1986 45.2882 77.1986C47.8132 78.8746 53.2575 78.8219 53.7342 77.9281C54.2112 77.0332 46.7968 74.9518 45.7319 74.3276C44.6653 73.7024 43.3353 70.8269 45.9504 66.6294Z" fill="white"/>
<path d="M85.4597 59.2876C86.2932 60.5839 88.4705 62.0946 90.0151 62.0739C95.2761 61.9784 97.0082 58.4249 97.576 57.1311C97.4692 57.1053 97.2896 57.0847 97.162 57.0691C96.193 56.9296 95.2034 55.9794 94.9143 54.9077C94.5418 53.513 94.0834 50.786 94.138 49.0532L87.4834 52.7048C87.4938 53.2057 87.5277 53.7533 87.5745 54.3059C87.6085 54.6417 87.6423 54.9722 87.6813 55.2924C87.7178 55.5997 87.7595 55.8915 87.7985 56.1602C87.921 57.064 87.5147 57.96 86.7463 58.4584L85.4597 59.2876Z" fill="#FFBB96"/>
<path d="M84.887 45.0838C85.2465 46.0188 85.0954 47.0802 84.7306 48.0125C84.4728 48.671 83.8999 48.0899 83.1862 48.1028C82.0819 48.1209 81.2197 46.9819 80.553 43.9631C80.1284 41.7474 80.0216 40.624 80.1076 40.4097C80.4124 39.6425 81.4178 39.2321 82.2459 39.1597" fill="#253E5F"/>
<path d="M83.2067 38.4443C81.4668 40.5232 80.8339 46.3726 82.303 50.4477C83.3473 53.3452 84.5612 55.2151 85.9779 55.1556C88.1293 55.0653 92.2992 53.3117 93.6562 51.8474C96.1019 49.2108 95.3908 44.0406 94.8856 40.7866C94.4271 37.8298 93.031 33.9895 89.2831 34.7204C86.8193 35.1981 84.7669 36.5772 83.2067 38.4443Z" fill="#FFBB96"/>
<path d="M93.0503 40.7406C92.6645 41.2322 91.9842 41.3406 91.4237 41.4377C90.6703 41.5684 90.2976 41.8406 89.9064 42.5711C89.6588 43.0375 89.4112 43.5486 88.9681 43.8013C88.6078 44.0076 88.6216 43.4807 88.5636 43.0724C88.5582 43.0368 88.5509 43.0015 88.5416 42.9667C88.454 42.6409 88.104 42.6968 88.0009 43.0182C87.9071 43.307 87.7063 43.5513 87.4508 43.6874C87.4091 43.7097 87.3649 43.7292 87.3204 43.7208C87.2605 43.7126 87.2137 43.657 87.1745 43.6069C87.0925 43.502 87.0109 43.3688 86.9267 43.2276C86.65 42.7645 86.1279 42.931 85.8189 43.3737C85.6262 43.6486 85.3967 43.932 85.0812 43.9957C84.9795 44.018 84.8519 44.0014 84.8049 43.9041C84.7449 43.7847 84.8387 43.6652 84.8232 43.5431C84.8102 43.4293 84.7606 43.3791 84.7058 43.282C84.4906 42.9041 83.9999 42.8907 83.6977 43.2042C83.4871 43.4222 83.2677 43.6316 83.04 43.8319C82.9436 43.9152 82.8028 43.9987 82.7064 43.9152C82.6543 43.8707 82.6412 43.7959 82.6307 43.7235C82.5761 43.3709 82.5239 43.0182 82.4693 42.6654C82.4378 42.4683 82.331 42.2099 82.1485 42.2598C82.06 42.285 82.0077 42.3766 81.9583 42.4599C81.8983 42.5654 80.8269 43.768 80.8061 43.6763C80.6391 42.9932 80.2977 42.371 80.1309 41.6877C79.0516 37.291 83.8404 33.7555 87.4978 33.736C88.3111 33.7303 89.0541 33.7434 89.8439 33.9296C90.686 34.1295 91.5749 34.447 92.3386 34.8941C93.41 35.5191 94.2209 36.6551 94.0122 38.0104" fill="#253E5F"/>
<path d="M91.3279 39.232C90.7965 39.8285 90.6559 40.6678 90.6065 41.4607C90.5336 42.6564 90.6325 43.8986 91.1898 44.96C91.3488 45.262 91.466 46.7573 91.7108 46.6746C91.7889 46.6489 91.7759 45.4894 91.9816 44.8644C92.2994 43.8959 93.7632 43.5267 94.4221 44.1386C95.4744 45.1123 94.8571 46.2951 94.508 47.0311C94.2997 47.4753 93.9689 47.9737 93.9115 48.4436C93.8413 49.0454 93.8205 51.238 94.2164 51.7493C94.5471 52.1779 94.8988 50.1068 95.1983 49.6989C97.4147 46.6592 99.5401 38.9195 95.7557 37.2409C95.18 36.9853 93.4037 36.8534 92.8647 37.1789M77.3152 100.757C77.0963 100.793 76.8751 100.824 76.6458 100.832C75.4268 100.871 74.2496 100.605 73.0593 100.403C72.0123 100.225 71.7285 100.127 71.7493 98.8744C71.9317 88.9551 73.4031 79.0616 76.0495 69.4935C76.453 68.0318 76.8932 66.5597 77.6668 65.253C78.9873 63.0244 82.0191 61.1005 84.3449 60.021C84.6731 59.8685 86.0327 60.7259 86.3634 60.5787C86.6525 60.4496 86.9078 60.2482 87.1995 60.1216C88.0538 59.7523 88.6267 60.5245 89.3404 60.8474C89.7103 61.0126 90.1217 61.1185 90.5281 61.1005C90.8589 61.0875 91.1584 60.8887 91.4605 61.0436C92.82 61.7409 96.1956 56.5656 96.1956 56.5656L97.662 58.0763L101.941 62.5207L112.636 77.1299C112.636 77.1299 114.576 89.1023 115.909 96.9505C116.141 98.3036 117.058 101.23 117.24 102.255C117.201 102.033 108.111 101.973 107.622 101.973H89.0955C88.0564 101.973 85.2617 102.41 84.5325 101.653C83.6339 100.723 82.5945 96.4571 82.5399 95.2614C82.3601 91.2405 82.639 87.2506 82.6936 83.2065C82.67 84.8515 82.1935 86.339 81.9904 87.9505C81.7272 90.0243 81.3522 92.0954 81.0137 94.1587C80.7427 95.8168 80.4823 97.4797 80.2739 99.1481C80.1802 99.8997 80.3 100.346 79.6593 100.641C79.1202 100.886 77.9455 100.651 77.3152 100.757Z" fill="#253E5F"/>
<path d="M81.8287 97.3223C82.3235 97.1209 85.3787 96.3695 86.7564 96.0854C87.4779 95.9382 90.7493 95.0964 91.507 95.0964C92.265 95.0964 93.2965 96.1706 93.2965 96.1706L93.0229 99.8661C92.2937 99.7939 91.3171 100.168 90.7935 100.241C90.27 100.313 88.491 100.323 87.3971 99.7783C87.3346 99.7473 87.2773 99.7138 87.2201 99.6802C86.78 100.067 86.2277 100.445 85.6157 100.476C85.6157 100.476 85.1364 100.426 85.1832 100.235C85.2041 100.142 85.5219 99.6621 85.8397 99.1921C85.3708 99.6646 84.605 100.432 83.7222 100.476C83.7222 100.476 83.2429 100.426 83.2897 100.235C83.3159 100.122 83.7743 99.4425 84.144 98.9028C84.1389 98.908 84.1311 98.9106 84.1285 98.9158C83.7403 99.2542 82.8183 100.421 81.727 100.476C81.727 100.476 81.2477 100.426 81.2947 100.235C81.3103 100.166 81.4926 99.8791 81.714 99.5459C81.391 99.792 81.0447 100.006 80.6799 100.186C79.5001 100.765 78.8281 100.326 78.8281 100.186C78.8256 100.044 81.3337 97.5237 81.8287 97.3223Z" fill="#FFBB96"/>
<path d="M92.4522 93.0302C92.4522 93.0302 90.5508 94.0994 90.7201 96.3719C90.8895 98.6445 91.577 101.279 94.4472 101.002C97.3175 100.729 92.4522 93.0302 92.4522 93.0302Z" fill="#253E5F"/>
<path d="M93.9841 100.777C100.865 103.146 110.072 100.883 115.909 96.9502C119.566 94.4918 121.9 91.3695 121.506 88.3197C120.488 80.3967 114.209 62.2367 108.775 59.587C105.082 57.7845 100.602 57.038 98.1047 56.7385C96.9325 56.5965 96.2007 56.563 96.2007 56.563L97.107 59.0989L101.644 71.7841C101.813 79.3121 107.247 83.7822 106.166 85.5357C105.085 87.2841 96.5496 89.1719 92.0672 92.1649C90.8274 92.9966 89.2543 99.0112 93.9841 100.777Z" fill="#253E5F"/>
<path d="M101.644 71.7843C101.639 73.2124 101.84 74.6432 102.215 76.0273C102.592 77.4116 103.145 78.7465 103.785 80.0328C104.106 80.6757 104.447 81.3059 104.798 81.9282C105.145 82.5531 105.502 83.173 105.793 83.8083C105.937 84.126 106.062 84.454 106.111 84.7767C106.124 84.9343 106.137 85.0969 106.093 85.2338C106.083 85.3087 106.038 85.3654 106.012 85.4327C105.963 85.492 105.929 85.5567 105.866 85.6135C105.4 86.0756 104.733 86.3882 104.1 86.6903C101.501 87.8653 98.7402 88.7356 96.1096 89.9081C94.7943 90.4943 93.4922 91.1271 92.2809 91.9172L92.0569 92.067C91.9814 92.1187 91.9111 92.1859 91.8382 92.2452C91.704 92.3742 91.5876 92.52 91.4919 92.6791C91.2989 92.9917 91.1687 93.3325 91.0672 93.6785C90.8745 94.3733 90.7937 95.0885 90.7886 95.804C90.8354 95.0938 90.9552 94.3836 91.1662 93.7095C91.3902 93.0406 91.7365 92.3899 92.3851 92.0773C93.6015 91.3285 94.9064 90.7318 96.2294 90.1819C97.5551 89.6394 98.8966 89.1256 100.243 88.6272C101.59 88.121 102.944 87.6381 104.267 87.0389C104.918 86.7187 105.588 86.4167 106.142 85.8613C106.213 85.7942 106.27 85.7012 106.33 85.6213C106.374 85.523 106.434 85.4302 106.45 85.3268C106.512 85.1201 106.491 84.9161 106.473 84.7225C106.411 84.3403 106.27 83.9942 106.119 83.6637C105.809 83.0026 105.447 82.3854 105.095 81.763C104.744 81.1406 104.389 80.5234 104.054 79.8959C102.712 77.396 101.78 74.6457 101.644 71.7843Z" fill="white"/>
<path d="M83.811 60.2663C84.4673 60.912 87.3896 62.9753 90.1765 62.9753C90.6702 62.9746 91.1628 62.9288 91.648 62.8384C93.987 62.415 95.956 60.8681 97.1073 59.0965C97.3173 58.7704 97.5027 58.4294 97.6621 58.0763C97.8703 57.6323 98.0188 57.1777 98.1048 56.7386C96.9326 56.5966 95.8128 56.3047 95.6305 56.0982C95.4325 57.4515 93.7474 59.8944 91.1949 60.3541C90.8941 60.4095 90.5892 60.4398 90.2833 60.4445H90.278C89.0799 60.4652 88.1605 60.0855 87.533 59.7033C87.5276 59.7033 86.3113 58.7529 86.3061 58.7478L83.811 60.2663Z" fill="#253E5F"/>
<path d="M81.977 89.7681C81.9841 89.6417 81.9678 89.5167 81.9723 89.3902C81.9776 89.2535 81.993 89.1197 82.0034 88.9832L82.0789 88.201C82.1275 87.6685 82.1761 87.1358 82.2166 86.6026C82.2975 85.5458 82.3524 84.4871 82.3812 83.4276C82.4363 81.3098 82.4054 79.187 82.2618 77.0736C82.2215 76.4822 82.1732 75.8915 82.1171 75.3014C82.0869 74.9986 82.0554 74.696 82.0227 74.3935C81.9898 74.0967 81.9414 73.8019 81.9375 73.5016C81.9352 73.3151 82.2176 73.3025 82.2599 73.4756C82.3845 73.9895 82.4028 74.5415 82.4565 75.067C82.5075 75.5949 82.5531 76.1226 82.5936 76.6524C82.6713 77.7198 82.7228 78.7884 82.7482 79.858C82.7942 81.9868 82.7177 84.1164 82.5346 86.2401C82.4835 86.836 82.4219 87.431 82.3499 88.0248C82.3131 88.3274 82.2724 88.6295 82.228 88.9311C82.2073 89.0645 82.1894 89.1979 82.1637 89.3283C82.1316 89.4818 82.074 89.6234 82.0417 89.7768C82.024 89.8121 81.9727 89.7989 81.977 89.7681Z" fill="white"/>
<path d="M82.5772 48.5528C82.5585 48.5528 82.5083 48.5238 82.5507 48.5238C82.5718 48.5238 82.6194 48.5528 82.5772 48.5528Z" fill="#FFBB96"/>
<path d="M41.6902 69.7693C42.6816 71.5056 42.211 74.1369 42.211 74.1369C42.211 74.1369 39.3742 73.363 38.3829 71.6265C37.3915 69.89 37.3281 68.0674 38.2407 67.5541C39.1546 67.0403 40.6988 68.0328 41.6902 69.7693Z" fill="white"/>
<path d="M44.6511 55.6204C44.8922 58.6424 42.5415 61.9661 42.5415 61.9661C42.5415 61.9661 39.136 59.0953 38.8947 56.0734C38.6536 53.0515 39.7458 50.5013 41.3349 50.3751C42.9259 50.2492 44.4098 52.5985 44.6511 55.6204Z" fill="white"/>
<path d="M60.8458 61.1777C62.4432 62.432 63.0131 65.0777 63.0131 65.0777C63.0131 65.0777 60.0548 65.4237 58.4575 64.1696C56.8604 62.9154 56.1003 61.2298 56.7589 60.4034C57.4189 59.5762 59.2487 59.9237 60.8458 61.1777Z" fill="white"/>
<path d="M42.5614 84.5449V87.514L45.2645 90.7084H33.9096C30.4774 90.7084 27.6934 87.948 27.6934 84.5449C27.6934 81.1417 30.4774 78.3813 33.9096 78.3813H36.3451C39.7795 78.3813 42.5614 81.1417 42.5614 84.5449Z" fill="#BBC3CD"/>
<path d="M37.7712 84.5343C37.7713 84.8248 37.8878 85.1035 38.095 85.309C38.3022 85.5145 38.5832 85.63 38.8763 85.6302C39.1693 85.63 39.4504 85.5145 39.6576 85.309C39.8648 85.1035 39.9812 84.8248 39.9813 84.5343C39.9812 84.2437 39.8647 83.9651 39.6575 83.7596C39.4503 83.5542 39.1693 83.4387 38.8763 83.4386C38.5832 83.4387 38.3022 83.5541 38.095 83.7596C37.8878 83.965 37.7713 84.2437 37.7712 84.5343ZM34.0157 84.5343C34.0158 84.8248 34.1323 85.1035 34.3396 85.3089C34.5468 85.5144 34.8279 85.6299 35.1209 85.63C35.414 85.6298 35.6949 85.5143 35.9021 85.3089C36.1094 85.1034 36.2258 84.8248 36.226 84.5343C36.2258 84.2437 36.1094 83.9651 35.9021 83.7596C35.6949 83.5542 35.414 83.4387 35.1209 83.4386C34.8279 83.4387 34.5468 83.5541 34.3396 83.7596C34.1323 83.965 34.0158 84.2437 34.0157 84.5343ZM30.2605 84.5343C30.2607 84.8248 30.3771 85.1034 30.5843 85.3089C30.7915 85.5143 31.0725 85.6298 31.3656 85.63C31.6586 85.6299 31.9397 85.5144 32.1469 85.3089C32.3542 85.1035 32.4707 84.8248 32.4708 84.5343C32.4707 84.2437 32.3542 83.965 32.1469 83.7596C31.9397 83.5541 31.6586 83.4387 31.3656 83.4386C31.0725 83.4387 30.7915 83.5542 30.5843 83.7596C30.3771 83.9651 30.2607 84.2437 30.2605 84.5343Z" fill="white"/>
<path d="M69.3596 38.7958L72.9079 47.3735C72.9656 47.5129 72.9951 47.6622 72.9947 47.8129C72.9942 47.9636 72.9639 48.1127 72.9053 48.2518C72.8468 48.3908 72.7611 48.5171 72.6534 48.6234C72.5456 48.7296 72.4177 48.8138 72.2771 48.8711L57.2528 54.9806C57.0316 55.0704 56.7877 55.0901 56.5548 55.0368C56.3218 54.9836 56.1113 54.86 55.952 54.6832C55.864 54.5861 55.7935 54.4747 55.7436 54.3539L52.1969 45.7797C52.1391 45.6405 52.1095 45.4914 52.1099 45.3408C52.1102 45.1902 52.1405 45.0412 52.199 44.9023C52.2575 44.7633 52.343 44.6372 52.4507 44.531C52.5584 44.4249 52.6861 44.3408 52.8266 44.2837L67.8508 38.1728C68.4408 37.9329 69.114 38.2112 69.3596 38.7958Z" fill="#BBC3CD"/>
<path d="M63.1705 46.9695L72.6866 48.0085C72.6547 48.1424 72.5909 48.2669 72.5007 48.3716C72.4106 48.4763 72.2965 48.5582 72.168 48.6104L57.1454 54.7209C57.0177 54.7728 56.8794 54.794 56.7419 54.7826C56.6044 54.7712 56.4715 54.7276 56.3542 54.6554L63.1705 46.9695Z" fill="#BBC3CD" stroke="white" stroke-width="2.882"/>
<path d="M52.4588 45.6731C52.4151 45.5681 52.3928 45.4553 52.3931 45.3417C52.3933 45.2281 52.4162 45.1156 52.4603 45.0107C52.5044 44.9058 52.5689 44.8106 52.6501 44.7305C52.7314 44.6503 52.8277 44.5869 52.9337 44.5437H52.9339L67.9581 38.4328C68.1498 38.3549 68.3631 38.3471 68.5601 38.4107C68.7571 38.4742 68.9249 38.6051 69.0336 38.7799L63.2324 47.8045L52.5813 45.9687L52.4588 45.6731Z" fill="#BBC3CD" stroke="white" stroke-width="2.882"/>
<path d="M132.263 95.8481C130.211 97.9186 126.374 97.4822 126.374 97.4822C126.374 97.4822 125.866 93.6883 127.92 91.619C129.972 89.5483 133.807 89.9835 133.807 89.9835C133.807 89.9835 134.315 93.7774 132.263 95.8481Z" fill="white"/>
<path d="M29.5507 38.6111C30.1962 39.7835 31.9501 40.069 31.9501 40.069C31.9501 40.069 32.6561 38.453 32.0097 37.2808C31.3642 36.1083 29.6115 35.8226 29.6115 35.8226C29.6115 35.8226 28.9053 37.4386 29.5507 38.6111Z" fill="white"/>
<path d="M137.467 38.292C138.832 37.1228 138.712 34.7666 138.712 34.7666C138.712 34.7666 136.38 34.3076 135.016 35.478C133.651 36.6472 133.77 39.0022 133.77 39.0022C133.77 39.0022 136.102 39.4612 137.467 38.292Z" fill="white"/>
<path d="M133.099 29.4875C133.516 28.2976 132.606 26.9018 132.606 26.9018C132.606 26.9018 131.02 27.4363 130.604 28.6268C130.186 29.8169 131.095 31.2121 131.095 31.2121C131.095 31.2121 132.682 30.6776 133.099 29.4875Z" fill="white"/>
<path fill-rule="evenodd" clip-rule="evenodd" d="M142.598 78.3624V68.5563C142.598 68.32 142.503 68.0933 142.335 67.9262C142.166 67.7591 141.938 67.6652 141.699 67.6651H127.32C127.082 67.6652 126.853 67.7591 126.685 67.9262C126.516 68.0933 126.421 68.3199 126.421 68.5563V79.7184C126.421 80.7321 127.496 81.3921 128.411 80.9405L131.445 79.4439C131.634 79.3508 131.841 79.3019 132.052 79.3009L141.704 79.2536C141.941 79.2522 142.169 79.1577 142.336 78.9907C142.504 78.8238 142.598 78.5979 142.598 78.3624Z" fill="#B7EB8F"/>
<path d="M134.384 73.3318C134.367 73.3483 134.354 73.3678 134.345 73.3894C134.336 73.4109 134.331 73.4339 134.331 73.4572C134.331 73.4805 134.336 73.5036 134.345 73.5251C134.354 73.5466 134.367 73.5662 134.383 73.5827C134.4 73.5991 134.42 73.6122 134.441 73.6211C134.463 73.6301 134.486 73.6347 134.51 73.6347C134.533 73.6347 134.556 73.6301 134.578 73.6212C134.6 73.6123 134.619 73.5992 134.636 73.5828C134.67 73.5495 134.688 73.5044 134.688 73.4574C134.688 73.4103 134.67 73.3652 134.636 73.3319C134.603 73.2987 134.557 73.28 134.51 73.2799C134.462 73.2799 134.417 73.2986 134.384 73.3318ZM137.6 73.3318C137.583 73.3483 137.57 73.3679 137.561 73.3894C137.552 73.4109 137.547 73.434 137.547 73.4573C137.547 73.4806 137.552 73.5037 137.561 73.5253C137.57 73.5468 137.583 73.5664 137.6 73.5829C137.616 73.5993 137.636 73.6124 137.658 73.6214C137.679 73.6303 137.703 73.6349 137.726 73.6349C137.75 73.6349 137.773 73.6303 137.795 73.6214C137.816 73.6125 137.836 73.5994 137.853 73.583C137.886 73.5497 137.905 73.5045 137.905 73.4575C137.905 73.4104 137.886 73.3652 137.853 73.3319C137.819 73.2986 137.774 73.2799 137.726 73.2799C137.679 73.2799 137.633 73.2986 137.6 73.3318ZM131.167 73.3318C131.15 73.3483 131.137 73.3678 131.128 73.3894C131.119 73.4109 131.115 73.4339 131.115 73.4572C131.114 73.4805 131.119 73.5036 131.128 73.5251C131.137 73.5466 131.15 73.5662 131.167 73.5827C131.183 73.5991 131.203 73.6122 131.225 73.6211C131.246 73.6301 131.27 73.6347 131.293 73.6347C131.317 73.6347 131.34 73.6301 131.361 73.6212C131.383 73.6123 131.403 73.5992 131.419 73.5828C131.453 73.5495 131.472 73.5044 131.472 73.4574C131.472 73.4103 131.453 73.3652 131.419 73.3319C131.386 73.2987 131.341 73.28 131.293 73.2799C131.246 73.2799 131.2 73.2986 131.167 73.3318Z" stroke="white" stroke-width="9.041" stroke-linecap="round" stroke-linejoin="round"/>
<path d="M46.4652 44.3359L44.6796 44.8246C42.9047 45.3103 41.0684 44.2774 40.5785 42.5174C40.0886 40.7573 41.1304 38.9368 42.9055 38.451C44.6804 37.9653 46.5167 38.9982 47.0066 40.7583L47.1545 41.2892C47.2149 41.5224 47.1806 41.7698 47.0589 41.9781C46.9372 42.1865 46.7378 42.3391 46.5038 42.4032C46.2697 42.4672 46.0196 42.4376 45.8074 42.3207C45.5951 42.2037 45.4377 42.0088 45.3689 41.7779L45.221 41.2469M45.221 41.2469C45.1693 41.0609 45.0811 40.8869 44.9614 40.7347C44.8418 40.5825 44.6931 40.4551 44.5239 40.3599C44.3546 40.2647 44.1681 40.2034 43.975 40.1797C43.7819 40.1559 43.5859 40.1701 43.3983 40.2214C43.1158 40.2987 42.8627 40.4574 42.6711 40.6773C42.4796 40.8972 42.358 41.1685 42.3219 41.4569C42.2859 41.7453 42.3368 42.0378 42.4684 42.2975C42.6 42.5572 42.8063 42.7723 43.0612 42.9157C43.3161 43.0591 43.6082 43.1244 43.9005 43.1032C44.1928 43.0821 44.4722 42.9754 44.7034 42.7968C44.9346 42.6182 45.1072 42.3756 45.1993 42.0997C45.2914 41.8238 45.299 41.5271 45.221 41.2469Z" stroke="#BBC3CD" stroke-width="4.302" stroke-linecap="round" stroke-linejoin="round"/>
<path d="M125.301 57.4882C126.882 56.4129 127.037 53.9095 127.037 53.9095C127.037 53.9095 124.628 53.151 123.047 54.2276C121.465 55.3028 121.31 57.8049 121.31 57.8049C121.31 57.8049 123.719 58.5636 125.301 57.4882Z" fill="#BBC3CD"/>
<path d="M127.721 40.1064C129.308 40.1064 130.594 41.3818 130.594 42.9552C130.594 44.5285 129.308 45.8039 127.721 45.8039C126.134 45.8039 124.848 44.5285 124.848 42.9552C124.848 41.3818 126.134 40.1064 127.721 40.1064Z" fill="#BBC3CD"/>
<path d="M137.174 57.9679C138.137 57.9679 138.918 58.7423 138.918 59.6976C138.918 60.6528 138.137 61.4272 137.174 61.4272C136.21 61.4272 135.429 60.6528 135.429 59.6976C135.429 58.7423 136.21 57.9679 137.174 57.9679Z" fill="#BBC3CD"/>
<path d="M140.047 89.5725L137.481 87.1307L140.047 84.6891L142.612 87.1307L140.047 89.5725Z" stroke="#BBC3CD" stroke-width="5.308" stroke-linecap="round" stroke-linejoin="round"/>
<path d="M86.0469 102.204H53.9869L44.3416 78.4242H76.3544L86.0469 102.204Z" fill="#B7EB8F"/>
<path d="M61.0536 90.2541C60.6424 88.8222 61.4715 87.6614 62.9027 87.6614C64.3338 87.6614 65.8251 88.8222 66.2364 90.2541C66.6476 91.686 65.8185 92.847 64.3873 92.847C62.9562 92.847 61.4648 91.686 61.0536 90.2541Z" fill="white"/>
</svg>
