<svg width="18" height="18" viewBox="0 0 18 18" fill="none" xmlns="http://www.w3.org/2000/svg">
<path d="M0.84405 10.7167C0.604392 9.58477 0.604392 8.41523 0.84405 7.28333C1.76905 7.39167 2.57738 7.08583 2.84072 6.44917C3.10488 5.81167 2.75072 5.02417 2.01905 4.44667C2.64992 3.47694 3.47682 2.65003 4.44655 2.01917C5.02322 2.75 5.81155 3.105 6.44905 2.84083C7.08655 2.57667 7.39238 1.76917 7.28322 0.844167C8.41511 0.604508 9.58465 0.604508 10.7166 0.844167C10.6082 1.76917 10.9141 2.5775 11.5507 2.84083C12.1882 3.105 12.9757 2.75083 13.5532 2.01917C14.5229 2.65003 15.3499 3.47694 15.9807 4.44667C15.2499 5.02333 14.8949 5.81167 15.1591 6.44917C15.4232 7.08667 16.2307 7.3925 17.1557 7.28333C17.3954 8.41523 17.3954 9.58477 17.1557 10.7167C16.2307 10.6083 15.4224 10.9142 15.1591 11.5508C14.8949 12.1883 15.2491 12.9758 15.9807 13.5533C15.3499 14.5231 14.5229 15.35 13.5532 15.9808C12.9766 15.25 12.1882 14.895 11.5507 15.1592C10.9132 15.4233 10.6074 16.2308 10.7166 17.1558C9.58465 17.3955 8.41511 17.3955 7.28322 17.1558C7.39155 16.2308 7.08572 15.4225 6.44905 15.1592C5.81155 14.895 5.02405 15.2492 4.44655 15.9808C3.47682 15.35 2.64992 14.5231 2.01905 13.5533C2.74988 12.9767 3.10488 12.1883 2.84072 11.5508C2.57655 10.9133 1.76905 10.6075 0.84405 10.7167ZM2.33322 9.175C3.24988 9.42917 4.00572 10.01 4.38072 10.9133C4.75488 11.8175 4.63072 12.7633 4.16238 13.59C4.24238 13.675 4.32488 13.7575 4.40988 13.8375C5.23738 13.3692 6.18238 13.2458 7.08655 13.6192C7.98988 13.9942 8.57072 14.75 8.82488 15.6667C8.94155 15.67 9.05822 15.67 9.17488 15.6667C9.42905 14.75 10.0099 13.9942 10.9132 13.6192C11.8174 13.245 12.7632 13.3692 13.5899 13.8375C13.6749 13.7575 13.7574 13.675 13.8374 13.59C13.3691 12.7625 13.2457 11.8175 13.6191 10.9133C13.9941 10.01 14.7499 9.42917 15.6666 9.175C15.6699 9.05833 15.6699 8.94167 15.6666 8.825C14.7499 8.57083 13.9941 7.99 13.6191 7.08667C13.2449 6.1825 13.3691 5.23667 13.8374 4.41C13.7571 4.32533 13.6746 4.2428 13.5899 4.1625C12.7624 4.63083 11.8174 4.75417 10.9132 4.38083C10.0099 4.00583 9.42905 3.25 9.17488 2.33333C9.05824 2.33025 8.94153 2.33025 8.82488 2.33333C8.57072 3.25 7.98988 4.00583 7.08655 4.38083C6.18238 4.755 5.23655 4.63083 4.40988 4.1625C4.32488 4.2425 4.24238 4.325 4.16238 4.41C4.63072 5.2375 4.75405 6.1825 4.38072 7.08667C4.00572 7.99 3.24988 8.57083 2.33322 8.825C2.32988 8.94167 2.32988 9.05833 2.33322 9.175ZM8.99988 11.5C8.33684 11.5 7.70096 11.2366 7.23212 10.7678C6.76328 10.2989 6.49988 9.66304 6.49988 9C6.49988 8.33696 6.76328 7.70107 7.23212 7.23223C7.70096 6.76339 8.33684 6.5 8.99988 6.5C9.66292 6.5 10.2988 6.76339 10.7677 7.23223C11.2365 7.70107 11.4999 8.33696 11.4999 9C11.4999 9.66304 11.2365 10.2989 10.7677 10.7678C10.2988 11.2366 9.66292 11.5 8.99988 11.5ZM8.99988 9.83333C9.2209 9.83333 9.43286 9.74554 9.58914 9.58926C9.74542 9.43298 9.83322 9.22101 9.83322 9C9.83322 8.77899 9.74542 8.56703 9.58914 8.41074C9.43286 8.25446 9.2209 8.16667 8.99988 8.16667C8.77887 8.16667 8.56691 8.25446 8.41063 8.41074C8.25435 8.56703 8.16655 8.77899 8.16655 9C8.16655 9.22101 8.25435 9.43298 8.41063 9.58926C8.56691 9.74554 8.77887 9.83333 8.99988 9.83333Z" fill="#929FAF"/>
</svg>
